<svg width="27" height="27" viewBox="0 0 27 27" fill="none" xmlns="http://www.w3.org/2000/svg">
<path d="M20.25 3.63867C20.301 3.67531 20.352 3.71195 20.4045 3.7497C21.4198 4.49469 22.3591 5.3567 23.0977 6.38086C23.1379 6.43579 23.1782 6.49071 23.2196 6.5473C24.5989 8.48216 25.3903 10.7533 25.4707 13.1309C25.474 13.2159 25.474 13.2159 25.4773 13.3027C25.5243 15.7384 24.7919 18.2675 23.3613 20.25C23.3246 20.3011 23.2879 20.3522 23.2501 20.4049C22.5047 21.4199 21.6433 22.3591 20.6192 23.0977C20.5642 23.1379 20.5093 23.1781 20.4527 23.2196C18.5151 24.6009 16.2495 25.3842 13.8692 25.4707C13.785 25.474 13.785 25.474 13.6992 25.4773C11.2701 25.5236 8.72224 24.7959 6.75002 23.3613C6.69903 23.3247 6.64805 23.288 6.59552 23.2503C5.58022 22.5053 4.64094 21.6433 3.90236 20.6191C3.86212 20.5642 3.82187 20.5093 3.78041 20.4527C1.97061 17.9139 1.19015 14.7862 1.66079 11.6944C1.95763 9.93218 2.58722 8.20715 3.63869 6.75C3.6754 6.69888 3.7121 6.64776 3.74993 6.59509C4.49529 5.58013 5.35671 4.64093 6.38088 3.90234C6.4358 3.8621 6.49073 3.82186 6.54732 3.7804C10.5422 0.932582 16.2125 0.701747 20.25 3.63867ZM6.1172 5.95899C6.0684 6.00501 6.01959 6.05103 5.9693 6.09844C4.11721 7.8902 3.00352 10.5228 2.94243 13.0936C2.90875 16.0571 3.90361 18.7335 5.959 20.8828C6.00509 20.9317 6.05118 20.9806 6.09866 21.0309C7.89027 22.8829 10.523 23.9965 13.0936 24.0576C15.399 24.0838 17.6837 23.5385 19.5645 22.1484C19.6198 22.108 19.6751 22.0675 19.7321 22.0259C20.1398 21.7228 20.5159 21.3919 20.8828 21.041C20.9317 20.9949 20.9806 20.9488 21.0309 20.9014C21.4081 20.5365 21.7335 20.1451 22.043 19.7227C22.0649 19.6928 22.0869 19.6629 22.1095 19.6321C23.7248 17.4 24.3681 14.5513 23.9398 11.836C23.6679 10.2594 23.1055 8.73054 22.1485 7.43555C22.108 7.38021 22.0676 7.32488 22.0259 7.26787C21.7228 6.8602 21.3919 6.48407 21.041 6.11719C20.9949 6.06831 20.9489 6.01944 20.9014 5.96908C20.5365 5.59193 20.1451 5.26651 19.7227 4.95703C19.6928 4.93509 19.6629 4.91315 19.6322 4.89055C15.6636 2.01862 10.0248 2.38167 6.1172 5.95899Z" fill="#007BFF"/>
<path d="M10.3887 7.64648C10.5944 7.75462 10.7221 7.9076 10.8106 8.12109C10.8531 8.36728 10.8411 8.54476 10.7117 8.7605C10.5491 8.92768 10.3531 9.05059 10.1609 9.18093C9.05338 9.96716 8.35333 11.226 8.12113 12.5508C7.90107 14.0586 8.23714 15.5247 9.12967 16.7662C9.95305 17.827 11.0289 18.5182 12.3399 18.8262C12.3893 18.8381 12.4387 18.85 12.4896 18.8622C13.8462 19.1381 15.2897 18.8176 16.4532 18.0879C17.7816 17.1981 18.5526 15.9482 18.8789 14.3965C19.1219 13.028 18.7998 11.5486 18.0241 10.3997C17.6171 9.82559 17.1551 9.38257 16.5828 8.97595C16.5472 8.95026 16.5116 8.92457 16.475 8.8981C16.4429 8.87538 16.4108 8.85266 16.3777 8.82925C16.2518 8.71464 16.1986 8.59593 16.1699 8.42967C16.1634 8.21139 16.1685 8.06192 16.3081 7.88708C16.5177 7.6918 16.6992 7.60222 16.9943 7.61043C17.9992 7.8613 18.9321 9.14928 19.4458 9.98327C19.8217 10.6174 20.0754 11.309 20.25 12.0234C20.267 12.0897 20.267 12.0897 20.2842 12.1573C20.6647 13.8941 20.2525 15.8005 19.3199 17.2944C19.0947 17.6327 18.831 17.9418 18.5625 18.2461C18.5224 18.2916 18.4823 18.3372 18.441 18.3841C17.2267 19.6717 15.4453 20.34 13.7036 20.407C11.8366 20.4457 10.1464 19.7909 8.75394 18.5625C8.70839 18.5224 8.66285 18.4823 8.61592 18.441C7.37871 17.2742 6.64877 15.5024 6.59183 13.8164C6.58972 13.7728 6.58761 13.7293 6.58544 13.6844C6.5415 11.9911 7.09306 10.3683 8.17386 9.07031C8.22984 9.00128 8.22984 9.00128 8.28695 8.93085C8.58633 8.57815 8.93157 8.30024 9.30178 8.02631C9.37595 7.97095 9.44865 7.91362 9.52106 7.85598C9.79782 7.64743 10.0432 7.56729 10.3887 7.64648Z" fill="#FF8C00"/>
<path d="M13.7109 6.06445C13.9466 6.18455 14.0781 6.29822 14.1855 6.53906C14.2092 6.73288 14.2076 6.92561 14.2068 7.12067C14.2072 7.17935 14.2075 7.23803 14.2079 7.29849C14.2089 7.49243 14.2087 7.68635 14.2084 7.88029C14.2086 8.01512 14.2089 8.14995 14.2092 8.28478C14.2097 8.56739 14.2096 8.84998 14.209 9.13259C14.2084 9.45883 14.2092 9.78506 14.2106 10.1113C14.2119 10.4257 14.212 10.74 14.2117 11.0544C14.2117 11.1879 14.212 11.3215 14.2126 11.455C14.2134 11.6417 14.2129 11.8284 14.212 12.0151C14.2125 12.0702 14.213 12.1254 14.2135 12.1822C14.2103 12.4974 14.1857 12.6804 13.9746 12.9199C13.7472 13.0838 13.5643 13.1004 13.2952 13.0596C13.058 12.9869 12.9459 12.8007 12.8144 12.6035C12.8008 12.4902 12.8008 12.4902 12.8003 12.3564C12.7999 12.3056 12.7994 12.2548 12.7989 12.2025C12.799 12.1468 12.799 12.0912 12.7991 12.0339C12.7987 11.9752 12.7984 11.9165 12.798 11.8561C12.797 11.6616 12.7968 11.4671 12.7967 11.2726C12.7963 11.1376 12.796 11.0026 12.7956 10.8676C12.795 10.5844 12.7948 10.3012 12.7949 10.0179C12.7949 9.69092 12.7938 9.36392 12.7921 9.0369C12.7906 8.72202 12.7902 8.40715 12.7903 8.09227C12.7902 7.95844 12.7897 7.82462 12.7889 7.69079C12.7878 7.50357 12.7881 7.31639 12.7888 7.12917C12.7882 7.07385 12.7876 7.01853 12.787 6.96153C12.7897 6.64533 12.815 6.46369 13.0253 6.22266C13.2334 6.04929 13.4476 6.01799 13.7109 6.06445Z" fill="#FF8C00"/>
</svg>
