<svg width="85" height="85" viewBox="0 0 85 85" fill="none" xmlns="http://www.w3.org/2000/svg">
<path d="M42.5 0C65.9721 0 85 19.0279 85 42.5C85 65.9721 65.9721 85 42.5 85C19.0279 85 0 65.9721 0 42.5C0 19.0279 19.0279 0 42.5 0ZM41.5811 42C29.1101 42 19 52.1101 19 64.5811C19.0002 67.5738 21.4262 69.9998 24.4189 70H63C64.6569 70 66 68.6569 66 67V65.5C66 52.5213 55.4787 42 42.5 42H41.5811ZM42.5 15C35.5964 15 30 20.5964 30 27.5C30 34.4036 35.5964 40 42.5 40C49.4036 40 55 34.4036 55 27.5C55 20.5964 49.4036 15 42.5 15Z" fill="#D9D9D9"/>
</svg>
