<svg width="27" height="27" viewBox="0 0 27 27" fill="none" xmlns="http://www.w3.org/2000/svg">
<path d="M16.4942 5.3776C16.6253 5.49733 16.7502 5.62173 16.8749 5.74805C16.9178 5.79101 16.9607 5.83397 17.0049 5.87823C18.1864 7.12229 18.2561 8.63213 18.2493 10.2469C18.2491 10.3581 18.2488 10.4694 18.2486 10.5806C18.248 10.8506 18.2471 11.1206 18.246 11.3906C18.2913 11.3899 18.2913 11.3899 18.3375 11.3892C18.4758 11.3872 18.6141 11.386 18.7524 11.3849C18.7999 11.3841 18.8473 11.3833 18.8963 11.3825C19.5131 11.3786 19.9576 11.5862 20.4114 12.0004C20.7311 12.3261 20.9411 12.7822 20.9433 13.24C20.9438 13.323 20.9438 13.323 20.9444 13.4076C20.9445 13.4682 20.9447 13.5289 20.9448 13.5914C20.9452 13.6553 20.9455 13.7192 20.9459 13.785C20.9469 13.9971 20.9475 14.2091 20.9481 14.4212C20.9483 14.4944 20.9485 14.5675 20.9487 14.6407C20.9497 14.9848 20.9505 15.3288 20.9509 15.6729C20.9514 16.069 20.9528 16.4651 20.9549 16.8612C20.9565 17.168 20.9573 17.4747 20.9575 17.7814C20.9576 17.9644 20.9581 18.1472 20.9594 18.3302C20.9609 18.5347 20.9606 18.7393 20.9603 18.9439C20.9613 19.0336 20.9613 19.0336 20.9623 19.1251C20.9582 19.7566 20.7645 20.2578 20.3206 20.7079C19.8424 21.1448 19.2938 21.2689 18.6602 21.2653C18.6141 21.2655 18.5679 21.2657 18.5204 21.2658C18.367 21.2663 18.2136 21.2659 18.0602 21.2656C17.9497 21.2657 17.8393 21.2659 17.7288 21.2662C17.4296 21.2666 17.1304 21.2665 16.8312 21.2661C16.5177 21.2659 16.2042 21.2661 15.8906 21.2663C15.3642 21.2665 14.8377 21.2662 14.3113 21.2657C13.7031 21.2651 13.095 21.2653 12.4869 21.2659C11.9642 21.2664 11.4415 21.2664 10.9188 21.2662C10.6069 21.266 10.2949 21.266 9.98301 21.2663C9.68971 21.2666 9.39642 21.2664 9.10312 21.2658C8.99566 21.2657 8.88821 21.2657 8.78075 21.2659C8.63372 21.2662 8.4867 21.2659 8.33967 21.2653C8.29747 21.2656 8.25527 21.2658 8.21179 21.2661C7.54386 21.2615 7.04607 21.0549 6.55693 20.6004C6.24387 20.2466 6.05917 19.815 6.05628 19.3438C6.05583 19.2885 6.05537 19.2333 6.05491 19.1763C6.05468 19.1159 6.05446 19.0555 6.05423 18.9933C6.0538 18.9295 6.05336 18.8657 6.05292 18.7999C6.05161 18.5884 6.05073 18.3769 6.04998 18.1653C6.0497 18.0923 6.04941 18.0192 6.04913 17.9462C6.04799 17.642 6.047 17.3378 6.04641 17.0336C6.04555 16.5991 6.04381 16.1645 6.04079 15.73C6.03875 15.4237 6.03772 15.1175 6.03744 14.8112C6.03725 14.6287 6.03663 14.4462 6.03491 14.2637C6.03301 14.0595 6.03324 13.8553 6.03363 13.6511C6.03276 13.5916 6.0319 13.532 6.03101 13.4707C6.03541 12.9032 6.20831 12.4185 6.60513 12.0063C6.98745 11.6394 7.4087 11.382 7.95048 11.3855C7.99738 11.3856 8.04429 11.3858 8.09261 11.386C8.14115 11.3864 8.18968 11.3869 8.23969 11.3873C8.28904 11.3876 8.33839 11.3878 8.38924 11.388C8.51078 11.3887 8.63231 11.3895 8.75385 11.3906C8.75302 11.2903 8.75302 11.2903 8.75218 11.1878C8.75024 10.9349 8.74905 10.6819 8.74806 10.4289C8.74753 10.3203 8.74682 10.2117 8.74589 10.1031C8.74143 9.56416 8.74092 9.029 8.79958 8.4927C8.80358 8.45594 8.80758 8.41917 8.81171 8.38128C8.96619 7.13993 9.66325 6.02461 10.6371 5.25477C12.3281 4.00879 14.8804 3.96579 16.4942 5.3776ZM10.8912 6.72878C9.74226 8.05968 10.0195 9.66475 10.0195 11.3906C12.3166 11.3906 14.6137 11.3906 16.9804 11.3906C17.1174 8.74736 17.1174 8.74736 15.9785 6.5918C15.202 5.85262 14.3187 5.56273 13.2682 5.57892C12.3354 5.6101 11.526 6.06091 10.8912 6.72878ZM7.46845 12.887C7.33231 13.1069 7.26418 13.2895 7.26354 13.5489C7.26317 13.5998 7.26279 13.6507 7.26241 13.7032C7.26254 13.7585 7.26267 13.8137 7.2628 13.8707C7.26253 13.9294 7.26227 13.988 7.26199 14.0485C7.26125 14.2424 7.26131 14.4364 7.26143 14.6303C7.26122 14.7651 7.26099 14.9 7.26074 15.0348C7.26035 15.3174 7.26036 15.6 7.26064 15.8826C7.26096 16.2088 7.26031 16.5351 7.25919 16.8613C7.25815 17.1757 7.25799 17.49 7.25817 17.8044C7.25814 17.9379 7.25787 18.0715 7.25734 18.205C7.25669 18.3917 7.25704 18.5784 7.25765 18.7651C7.25725 18.8202 7.25685 18.8754 7.25643 18.9322C7.25879 19.2578 7.28384 19.5075 7.51645 19.7566C7.79474 19.9695 7.95224 19.9942 8.29635 19.9941C8.36527 19.9944 8.36527 19.9944 8.43559 19.9947C8.59048 19.9953 8.74537 19.9955 8.90026 19.9957C9.01095 19.996 9.12163 19.9963 9.23231 19.9967C9.53369 19.9976 9.83507 19.9982 10.1364 19.9986C10.3246 19.9989 10.5128 19.9992 10.701 19.9995C11.2894 20.0005 11.8778 20.0013 12.4662 20.0017C13.1461 20.0023 13.8259 20.0036 14.5058 20.0058C15.0308 20.0074 15.5559 20.0081 16.081 20.0083C16.3948 20.0084 16.7085 20.0089 17.0223 20.0102C17.3175 20.0115 17.6127 20.0117 17.9079 20.0112C18.0163 20.0111 18.1247 20.0115 18.233 20.0122C18.381 20.0131 18.5288 20.0127 18.6768 20.012C18.7197 20.0126 18.7626 20.0132 18.8068 20.0138C19.0837 20.0107 19.2382 19.9567 19.4589 19.7754C19.6566 19.5564 19.7289 19.4002 19.7304 19.1071C19.7307 19.0565 19.7311 19.0058 19.7315 18.9537C19.7316 18.8982 19.7318 18.8427 19.7319 18.7856C19.7325 18.6978 19.7325 18.6978 19.733 18.6083C19.734 18.4143 19.7346 18.2203 19.7352 18.0263C19.7355 17.9269 19.7355 17.9269 19.7358 17.8256C19.7368 17.5111 19.7376 17.1967 19.738 16.8822C19.7385 16.5199 19.7399 16.1575 19.742 15.7952C19.7438 15.4809 19.7445 15.1666 19.7447 14.8523C19.7449 14.7188 19.7455 14.5854 19.7465 14.4519C19.7478 14.265 19.7478 14.0781 19.7474 13.8911C19.7481 13.8362 19.7487 13.7813 19.7494 13.7247C19.7471 13.3976 19.7074 13.1369 19.5117 12.8672C19.1964 12.6111 18.939 12.5957 18.5454 12.5961C18.5007 12.596 18.456 12.5958 18.41 12.5956C18.2601 12.5952 18.1101 12.5951 17.9602 12.595C17.8528 12.5948 17.7453 12.5945 17.6379 12.5942C17.3459 12.5935 17.0539 12.5932 16.7619 12.593C16.5795 12.5928 16.397 12.5926 16.2146 12.5924C15.6438 12.5916 15.073 12.5911 14.5022 12.5909C13.8433 12.5907 13.1844 12.5898 12.5255 12.5882C12.0162 12.5871 11.5069 12.5866 10.9976 12.5865C10.6935 12.5864 10.3893 12.5861 10.0851 12.5852C9.7989 12.5843 9.51271 12.5842 9.22652 12.5847C9.12159 12.5847 9.01666 12.5845 8.91173 12.5839C8.76824 12.5833 8.62479 12.5836 8.4813 12.5841C8.41934 12.5835 8.41934 12.5835 8.35613 12.5828C8.02108 12.5858 7.714 12.6414 7.46845 12.887Z" fill="#FF8C00"/>
<path d="M24.416 7.48828C24.6683 7.77034 24.8224 8.131 24.9664 8.47705C24.9865 8.52495 25.0066 8.57285 25.0273 8.6222C26.3157 11.7452 26.3401 15.2227 25.0488 18.3516C24.6116 19.3786 24.0561 20.3253 23.3613 21.1992C23.301 21.2756 23.301 21.2756 23.2396 21.3535C23.0376 21.6052 22.8313 21.8432 22.5989 22.0671C22.5056 22.1576 22.5056 22.1576 22.389 22.3066C22.2195 22.5051 22.0309 22.6658 21.832 22.834C21.7831 22.8769 21.7342 22.9199 21.6839 22.9642C19.2431 25.0978 15.9762 26.1838 12.7436 25.9818C10.1714 25.7971 7.85542 24.9032 5.80075 23.3613C5.79998 23.4092 5.79921 23.4571 5.79842 23.5064C5.79519 23.6851 5.79128 23.8637 5.78691 24.0424C5.78516 24.1195 5.78368 24.1966 5.78248 24.2738C5.7807 24.3851 5.77794 24.4963 5.775 24.6076C5.77362 24.6744 5.77224 24.7413 5.77082 24.8101C5.73732 25.0833 5.6525 25.2543 5.45139 25.441C5.21692 25.5496 5.04401 25.5497 4.7988 25.4707C4.62792 25.3354 4.55118 25.2552 4.48239 25.0488C4.47691 24.9427 4.47456 24.8364 4.47389 24.7301C4.47339 24.6644 4.47288 24.5988 4.47236 24.5311C4.4721 24.4594 4.47188 24.3876 4.47168 24.3159C4.47138 24.2423 4.47107 24.1686 4.47077 24.095C4.47022 23.9407 4.46991 23.7863 4.46972 23.632C4.46943 23.4345 4.46817 23.237 4.46667 23.0395C4.46568 22.8874 4.46541 22.7353 4.46533 22.5832C4.46517 22.5104 4.46475 22.4377 4.46405 22.3649C4.46315 22.2629 4.46335 22.1609 4.4636 22.059C4.4634 22.001 4.46321 21.943 4.46301 21.8833C4.49034 21.6623 4.5775 21.5238 4.73618 21.3706C4.88747 21.2842 4.99311 21.2588 5.16794 21.252C5.45142 21.3344 5.60109 21.4611 5.80096 21.673C6.0122 21.8863 6.25087 22.0683 6.4863 22.2539C6.53524 22.2926 6.58419 22.3313 6.63461 22.3711C7.3108 22.892 8.034 23.3169 8.80661 23.6777C8.8648 23.7053 8.92299 23.7328 8.98294 23.7612C10.3946 24.3981 11.9354 24.7042 13.4802 24.6962C13.519 24.6961 13.5579 24.696 13.5979 24.6959C16.6888 24.6831 19.5026 23.3848 21.6703 21.2033C23.4587 19.3569 24.6661 16.6794 24.6922 14.0933C24.6927 14.0507 24.6933 14.0081 24.6938 13.9642C24.7031 13.0007 24.6878 12.0705 24.4687 11.127C24.4574 11.0774 24.4461 11.0279 24.4345 10.9769C24.2339 10.1238 23.9298 9.31657 23.5459 8.52979C23.4226 8.26596 23.3583 8.09364 23.414 7.80469C23.5087 7.63272 23.6327 7.5183 23.7964 7.40918C24.0257 7.36748 24.204 7.3902 24.416 7.48828Z" fill="#007BFF"/>
<path d="M19.4063 2.47852C19.4588 2.50634 19.4588 2.50634 19.5123 2.53473C20.1134 2.85478 20.6552 3.23052 21.1993 3.63867C21.2 3.59081 21.2008 3.54294 21.2016 3.49363C21.2048 3.31493 21.2087 3.13628 21.2131 2.95761C21.2149 2.88049 21.2163 2.80336 21.2175 2.72623C21.2193 2.61493 21.2221 2.50369 21.225 2.39241C21.2264 2.32558 21.2278 2.25875 21.2292 2.1899C21.2588 1.94841 21.3327 1.76775 21.5025 1.59192C21.6694 1.50383 21.8017 1.48307 21.9903 1.47657C22.1815 1.55009 22.3366 1.63096 22.4649 1.79297C22.5219 1.96402 22.525 2.08994 22.5261 2.26992C22.5266 2.33558 22.5271 2.40123 22.5277 2.46887C22.5279 2.54061 22.5281 2.61236 22.5283 2.6841C22.5286 2.75773 22.5289 2.83136 22.5293 2.90498C22.5298 3.05934 22.5301 3.21369 22.5303 3.36805C22.5306 3.56553 22.5319 3.763 22.5334 3.96047C22.5343 4.11257 22.5346 4.26467 22.5347 4.41677C22.5349 4.48956 22.5353 4.56234 22.536 4.63513C22.5369 4.7371 22.5367 4.83907 22.5364 4.94104C22.5366 4.999 22.5368 5.05696 22.537 5.11667C22.5151 5.29409 22.4612 5.39187 22.3594 5.53711C22.3388 5.56757 22.3181 5.59802 22.2968 5.6294C22.1409 5.73694 21.9647 5.76298 21.7794 5.74805C21.5069 5.64138 21.3308 5.47802 21.1268 5.27674C20.5446 4.72059 19.8978 4.24369 19.1954 3.84961C19.1536 3.82596 19.1118 3.80232 19.0688 3.77795C17.964 3.15889 16.8033 2.71217 15.5567 2.47852C15.5113 2.46996 15.4658 2.4614 15.419 2.45259C12.5203 1.93453 9.50449 2.64882 7.07928 4.29366C4.52166 6.09468 2.9442 8.77694 2.39427 11.8294C2.34004 12.1914 2.31177 12.5482 2.30965 12.9142C2.30928 12.9573 2.30891 13.0005 2.30853 13.0449C2.29344 14.3619 2.29344 14.3619 2.47857 15.6621C2.48905 15.7098 2.49952 15.7574 2.51032 15.8065C2.73042 16.78 3.05918 17.7124 3.52007 18.5981C3.61633 18.8541 3.62849 19.0828 3.52996 19.3436C3.38785 19.5041 3.26322 19.5558 3.05865 19.6172C2.77277 19.6123 2.62953 19.5504 2.42583 19.3535C2.33518 19.209 2.26508 19.0573 2.19512 18.902C2.17474 18.8576 2.15436 18.8132 2.13336 18.7674C0.760909 15.7266 0.620787 12.2467 1.78664 9.11666C2.0013 8.55707 2.24556 8.01511 2.5313 7.48828C2.55044 7.45292 2.56957 7.41755 2.58929 7.38112C3.06635 6.51116 3.647 5.70124 4.34281 4.99285C4.43953 4.89433 4.5351 4.79474 4.63079 4.69522C5.03708 4.27676 5.45317 3.89136 5.92327 3.54577C6.00944 3.48219 6.09436 3.41721 6.17924 3.35193C9.9307 0.516162 15.3108 0.272613 19.4063 2.47852Z" fill="#007BFF"/>
<path d="M18.0879 15.3457C18.3619 15.6197 18.5158 15.9021 18.5295 16.2916C18.5173 16.657 18.4102 16.9884 18.1406 17.2441C17.7727 17.4968 17.422 17.5783 16.9804 17.5078C16.6061 17.3976 16.3944 17.2147 16.1925 16.8847C16.042 16.5742 16.025 16.2191 16.128 15.8908C16.3063 15.4947 16.5516 15.2803 16.9475 15.1117C17.3599 15.0477 17.742 15.1033 18.0879 15.3457Z" fill="#007BFF"/>
<path d="M14.291 15.3457C14.565 15.6197 14.7189 15.9021 14.7326 16.2916C14.7204 16.657 14.6133 16.9884 14.3437 17.2441C13.9758 17.4968 13.6251 17.5783 13.1836 17.5078C12.8092 17.3976 12.5975 17.2147 12.3956 16.8847C12.2451 16.5742 12.2281 16.2191 12.3312 15.8908C12.5095 15.4947 12.7547 15.2803 13.1506 15.1117C13.563 15.0477 13.9451 15.1033 14.291 15.3457Z" fill="#007BFF"/>
<path d="M10.4941 15.3457C10.7681 15.6197 10.9221 15.9021 10.9358 16.2916C10.9236 16.657 10.8164 16.9884 10.5469 17.2441C10.179 17.4968 9.82824 17.5783 9.3867 17.5078C9.01233 17.3976 8.80067 17.2147 8.59877 16.8847C8.44824 16.5742 8.43127 16.2191 8.5343 15.8908C8.71258 15.4947 8.95785 15.2803 9.35374 15.1117C9.76613 15.0477 10.1482 15.1033 10.4941 15.3457Z" fill="#007BFF"/>
</svg>
