<svg width="42" height="42" viewBox="0 0 42 42" fill="none" xmlns="http://www.w3.org/2000/svg">
<circle cx="21" cy="21" r="20" fill="white" stroke="#D3D3D3"/>
<g clip-path="url(#clip0_4322_566)">
<path d="M19.6661 22.9692C19.7091 22.9688 19.7521 22.9685 19.7964 22.9681C19.9384 22.9671 20.0804 22.9665 20.2224 22.966C20.2712 22.9658 20.32 22.9655 20.3703 22.9653C20.629 22.9642 20.8878 22.9635 21.1465 22.963C21.4118 22.9624 21.677 22.9606 21.9423 22.9585C22.1479 22.9571 22.3535 22.9567 22.5591 22.9565C22.6568 22.9562 22.7544 22.9556 22.8521 22.9546C23.9731 22.944 24.9817 23.1862 25.8242 23.9805C25.9525 24.1148 26.0766 24.2514 26.1981 24.3919C26.2313 24.4301 26.2646 24.4684 26.2988 24.5078C26.3282 24.5501 26.3282 24.5501 26.3582 24.5933C26.5156 24.7091 26.6862 24.6849 26.8739 24.6806C26.9164 24.6803 26.9589 24.68 27.0026 24.6797C27.095 24.6789 27.1873 24.6778 27.2797 24.6763C27.4266 24.674 27.5734 24.6728 27.7203 24.6719C28.138 24.669 28.5557 24.664 28.9734 24.6588C29.229 24.6557 29.4846 24.6536 29.7402 24.6522C29.8836 24.651 30.027 24.6486 30.1705 24.6462C31.3178 24.6349 32.2797 24.9804 33.1191 25.786C33.7109 26.4021 34.1543 27.2464 34.1664 28.1137C34.1677 28.197 34.1677 28.197 34.169 28.2819C34.1714 28.5365 34.1735 28.7911 34.1747 29.0457C34.1756 29.1792 34.177 29.3127 34.179 29.4461C34.1965 30.608 34.1069 31.4357 33.3078 32.3304C32.5002 33.1139 31.4732 33.1811 30.4142 33.1717C30.3147 33.1714 30.2153 33.1712 30.1158 33.171C29.8566 33.1704 29.5974 33.1689 29.3382 33.1671C29.0727 33.1655 28.8072 33.1648 28.5417 33.164C28.0226 33.1623 27.5035 33.1595 26.9844 33.1563C26.9844 32.8604 26.9844 32.5646 26.9844 32.2598C28.2373 32.2598 29.4903 32.2598 30.7812 32.2598C30.7812 30.7284 30.7812 29.197 30.7812 27.6192C31.0597 27.6192 31.3381 27.6192 31.625 27.6192C31.6424 29.1158 31.6598 30.6124 31.6777 32.1543C32.3459 31.8871 32.7985 31.608 33.0917 30.948C33.2946 30.466 33.2696 29.9482 33.2695 29.4342C33.2696 29.3243 33.2706 29.2144 33.2716 29.1045C33.2761 28.053 33.0859 27.1743 32.3699 26.3766C31.8566 25.8799 31.1265 25.6007 30.4182 25.5984C30.379 25.5979 30.3399 25.5974 30.2995 25.5968C30.1717 25.5952 30.0439 25.5943 29.9161 25.5934C29.8268 25.5924 29.7376 25.5914 29.6483 25.5903C29.4146 25.5876 29.1809 25.5855 28.9471 25.5836C28.7082 25.5814 28.4692 25.5788 28.2302 25.5761C27.7622 25.571 27.2942 25.5666 26.8262 25.5625C26.8373 25.5905 26.8485 25.6184 26.86 25.6472C27.045 26.1966 27.0083 26.7715 27.0072 27.3439C27.0075 27.4611 27.0078 27.5783 27.0081 27.6955C27.0085 27.9404 27.0084 28.1852 27.0079 28.4301C27.0073 28.7427 27.0084 29.0552 27.0099 29.3678C27.0109 29.6096 27.0108 29.8514 27.0105 30.0932C27.0105 30.2084 27.0109 30.3236 27.0115 30.4388C27.0157 31.2913 26.9675 31.9225 26.3652 32.5694C25.6015 33.3061 24.6197 33.1563 23.6094 33.1563C23.6094 30.9114 23.6094 28.6665 23.6094 26.3535C23.8878 26.3535 24.1662 26.3535 24.4531 26.3535C24.4531 28.3026 24.4531 30.2517 24.4531 32.2598C25.2498 32.1823 25.2498 32.1823 25.8242 31.7324C26.0798 31.374 26.0958 31.01 26.0955 30.5767C26.0957 30.5367 26.0959 30.4967 26.0961 30.4554C26.0966 30.324 26.0967 30.1926 26.0967 30.0612C26.0969 29.9689 26.0971 29.8766 26.0973 29.7843C26.0976 29.591 26.0977 29.3977 26.0977 29.2044C26.0977 28.9586 26.0984 28.7129 26.0993 28.4671C26.0999 28.2764 26.1 28.0857 26.0999 27.895C26.1 27.8045 26.1002 27.714 26.1006 27.6235C26.1053 26.5065 25.9731 25.5526 25.198 24.6891C24.6782 24.1861 23.9444 23.9115 23.2281 23.9124C23.187 23.9121 23.1459 23.9117 23.1035 23.9114C22.9687 23.9104 22.8339 23.9101 22.6991 23.91C22.6044 23.9097 22.5097 23.9093 22.415 23.909C22.2168 23.9083 22.0186 23.9081 21.8204 23.9082C21.5682 23.9082 21.316 23.9068 21.0638 23.905C20.8682 23.9038 20.6726 23.9036 20.477 23.9036C20.3841 23.9035 20.2912 23.903 20.1983 23.9022C19.3247 23.8952 18.6354 24.0686 17.9042 24.5704C16.9887 25.486 16.9038 26.5054 16.9032 27.7331C16.9031 27.8258 16.9029 27.9185 16.9027 28.0112C16.9024 28.2046 16.9023 28.3981 16.9023 28.5916C16.9023 28.8385 16.9016 29.0854 16.9007 29.3323C16.9001 29.5235 16.9 29.7146 16.9 29.9058C16.9 29.9968 16.8998 30.0878 16.8993 30.1788C16.8835 31.0917 16.8835 31.0917 17.2812 31.8906C17.6695 32.2113 18.0475 32.2144 18.5469 32.2598C18.5469 30.3107 18.5469 28.3617 18.5469 26.3535C18.8253 26.3535 19.1037 26.3535 19.3906 26.3535C19.3906 28.5984 19.3906 30.8433 19.3906 33.1563C17.2689 33.1563 17.2689 33.1563 16.5561 32.5169C16.2408 32.1828 16.0101 31.7082 16.0082 31.2451C16.0079 31.2008 16.0076 31.1566 16.0073 31.111C16.0072 31.0388 16.0072 31.0388 16.0071 30.9651C16.0069 30.914 16.0066 30.863 16.0063 30.8104C16.0056 30.6414 16.0052 30.4724 16.0049 30.3035C16.0046 30.1857 16.0043 30.068 16.004 29.9503C16.0034 29.7032 16.0031 29.4562 16.003 29.2091C16.0027 28.8936 16.0014 28.5781 15.9999 28.2626C15.9989 28.0193 15.9986 27.7759 15.9986 27.5326C15.9984 27.4163 15.998 27.3001 15.9973 27.1839C15.9964 27.0206 15.9965 26.8573 15.9968 26.694C15.9963 26.6466 15.9959 26.5993 15.9954 26.5504C15.9976 26.2017 16.069 25.8944 16.1738 25.5625C15.6631 25.5645 15.1524 25.5677 14.6417 25.5722C14.4045 25.5743 14.1673 25.576 13.9301 25.5768C13.7006 25.5776 13.4712 25.5794 13.2418 25.5819C13.1547 25.5827 13.0677 25.5831 12.9807 25.5832C12.1022 25.5841 11.2314 25.7589 10.584 26.4063C9.87867 27.2814 9.73033 28.0852 9.73046 29.1889C9.73034 29.2995 9.72938 29.4101 9.72839 29.5207C9.72506 30.2865 9.78864 31.028 10.3302 31.6204C10.61 31.8752 10.9565 32.0629 11.3223 32.1543C11.3397 30.6577 11.3571 29.1611 11.375 27.6192C11.6534 27.6192 11.9319 27.6192 12.2187 27.6192C12.2187 29.1506 12.2187 30.682 12.2187 32.2598C13.4717 32.2598 14.7247 32.2598 16.0156 32.2598C16.0156 32.5556 16.0156 32.8515 16.0156 33.1563C15.4439 33.1599 14.8723 33.1628 14.3006 33.1645C14.035 33.1653 13.7695 33.1664 13.504 33.1682C13.2472 33.1699 12.9904 33.1709 12.7336 33.1713C12.6362 33.1716 12.5388 33.1721 12.4414 33.173C11.3997 33.1818 10.4365 33.0551 9.65145 32.2934C9.0745 31.6366 8.80861 30.9287 8.81758 30.0513C8.81747 29.9585 8.81747 29.9585 8.81735 29.8637C8.81744 29.7339 8.81804 29.6041 8.81914 29.4743C8.82067 29.2773 8.82023 29.0803 8.81954 28.8832C8.81987 28.7562 8.82031 28.6292 8.82088 28.5023C8.82073 28.4442 8.82057 28.3862 8.82041 28.3264C8.82705 27.7724 8.93928 27.261 9.19641 26.7688C9.2148 26.7331 9.2332 26.6973 9.25215 26.6604C9.72633 25.7663 10.5193 25.1045 11.4838 24.8012C11.5877 24.7719 11.692 24.7443 11.7969 24.7188C11.8344 24.7093 11.8719 24.6998 11.9106 24.69C12.1079 24.6585 12.3011 24.6634 12.5001 24.6684C12.5904 24.6702 12.6807 24.6719 12.7711 24.6736C12.8187 24.6746 12.8663 24.6756 12.9154 24.6766C13.1687 24.6814 13.4219 24.6842 13.6752 24.6871C13.9971 24.6909 14.3189 24.6954 14.6407 24.7029C14.9012 24.7089 15.1617 24.7123 15.4223 24.714C15.5213 24.7151 15.6203 24.7172 15.7193 24.7202C16.2649 24.7543 16.2649 24.7543 16.7481 24.5502C16.8548 24.4176 16.9367 24.2879 17.0176 24.1387C17.5517 23.5642 18.2127 23.2153 18.9687 23.0313C19.0064 23.022 19.044 23.0127 19.0828 23.0032C19.2774 22.9711 19.4695 22.9699 19.6661 22.9692Z" fill="#36454F"/>
<path d="M20.2368 7.77569C20.3295 7.77468 20.3295 7.77468 20.4241 7.77365C20.4902 7.77353 20.5562 7.77341 20.6243 7.77329C20.7273 7.77277 20.7273 7.77277 20.8324 7.77223C20.9775 7.7716 21.1225 7.7714 21.2676 7.77146C21.4524 7.77148 21.6371 7.77004 21.8218 7.76822C21.9994 7.76676 22.1771 7.76683 22.3547 7.7667C22.4204 7.76594 22.4862 7.76519 22.554 7.7644C22.9903 7.76668 23.339 7.81917 23.68 8.10556C23.7078 8.13989 23.7356 8.17422 23.7643 8.20959C23.8074 8.26088 23.8074 8.26088 23.8514 8.3132C24.0371 8.58939 24.0457 8.82916 24.0416 9.1516C24.0413 9.21775 24.0413 9.21775 24.0411 9.28525C24.0405 9.42548 24.0392 9.5657 24.0379 9.70592C24.0373 9.80127 24.0368 9.89661 24.0364 9.99195C24.0353 10.2251 24.0334 10.4582 24.0313 10.6914C24.0625 10.6979 24.0938 10.7043 24.126 10.711C24.3466 10.758 24.5562 10.8061 24.764 10.8957C24.8067 10.914 24.8494 10.9322 24.8934 10.951C24.9363 10.9697 24.9792 10.9885 25.0233 11.0078C25.0891 11.0359 25.0891 11.0359 25.1563 11.0647C25.3465 11.1464 25.5342 11.2303 25.7188 11.3242C25.7541 11.287 25.7894 11.2497 25.8257 11.2114C25.9587 11.0716 26.093 10.9332 26.2276 10.7951C26.2854 10.7355 26.3428 10.6755 26.3999 10.6152C26.8012 10.1919 27.1677 9.85924 27.782 9.82458C28.1973 9.87147 28.4346 9.96593 28.7454 10.2568C28.7726 10.2821 28.7997 10.3074 28.8277 10.3336C28.9168 10.4172 29.0054 10.5015 29.0938 10.5859C29.1241 10.6149 29.1545 10.6439 29.1858 10.6738C29.3782 10.8581 29.5686 11.0442 29.7579 11.2316C29.8231 11.2959 29.8886 11.36 29.9543 11.4237C30.7668 12.2119 30.7668 12.2119 30.8672 12.7765C30.8462 13.7525 30.0642 14.3191 29.4102 14.9629C29.5157 15.2989 29.653 15.6217 29.7881 15.9467C29.8065 15.9918 29.8248 16.037 29.8438 16.0835C29.8689 16.1443 29.8689 16.1443 29.8945 16.2063C29.9439 16.3531 29.9682 16.4973 29.9902 16.6504C30.0469 16.6493 30.1035 16.6482 30.1618 16.647C30.3738 16.6432 30.5858 16.6408 30.7978 16.6388C30.8892 16.6377 30.9806 16.6363 31.072 16.6345C32.1214 16.6139 32.1214 16.6139 32.5394 16.9649C32.5811 17.0164 32.5811 17.0164 32.6237 17.069C32.6668 17.1203 32.6668 17.1203 32.7108 17.1726C32.8642 17.4007 32.904 17.5974 32.906 17.8702C32.9066 17.9343 32.9073 17.9984 32.908 18.0644C32.9082 18.1677 32.9082 18.1677 32.9084 18.273C32.9087 18.3449 32.909 18.4168 32.9094 18.4887C32.91 18.6393 32.9102 18.7899 32.9102 18.9405C32.9102 19.1325 32.9116 19.3245 32.9134 19.5165C32.9146 19.6651 32.9148 19.8136 32.9148 19.9621C32.9149 20.067 32.9161 20.172 32.9172 20.2769C32.9149 20.7385 32.8606 21.0231 32.5578 21.3833C32.2493 21.6416 32.0239 21.7243 31.625 21.7656C31.6165 21.6205 31.6102 21.4758 31.6052 21.3306C31.6026 21.2896 31.5999 21.2486 31.5972 21.2063C31.5941 21.0863 31.595 20.9856 31.625 20.8691C31.7812 20.748 31.7812 20.748 31.9414 20.6582C31.9982 20.5069 32.0011 20.3613 32.0018 20.2008C32.0021 20.1522 32.0025 20.1036 32.0028 20.0536C32.0029 20.0015 32.003 19.9493 32.003 19.8956C32.0032 19.8416 32.0034 19.7877 32.0035 19.7321C32.0038 19.618 32.0039 19.5039 32.0039 19.3898C32.004 19.2156 32.005 19.0415 32.006 18.8673C32.0062 18.7563 32.0063 18.6454 32.0063 18.5344C32.0069 18.4565 32.0069 18.4565 32.0075 18.3771C32.0066 18.1168 32.0005 17.8932 31.8887 17.6523C31.7635 17.5897 31.6835 17.5914 31.5437 17.5888C31.4941 17.5877 31.4445 17.5867 31.3934 17.5856C31.3129 17.5843 31.3129 17.5843 31.2307 17.5829C31.1484 17.5813 31.1484 17.5813 31.0645 17.5796C30.8888 17.5761 30.7131 17.573 30.5374 17.5699C30.4184 17.5677 30.2995 17.5654 30.1806 17.563C29.8886 17.5574 29.5967 17.552 29.3047 17.5469C29.2949 17.512 29.2852 17.477 29.2751 17.4411C29.0258 16.5535 28.7336 15.6708 28.1973 14.9101C28.2652 14.76 28.3353 14.6544 28.4543 14.5407C28.4847 14.5113 28.5151 14.4819 28.5465 14.4516C28.5793 14.4204 28.612 14.3892 28.6457 14.3571C28.7149 14.2898 28.784 14.2224 28.8531 14.1551C28.9619 14.0495 29.0709 13.9443 29.1805 13.8396C29.2864 13.7381 29.3913 13.6357 29.4961 13.5331C29.5289 13.5022 29.5618 13.4713 29.5956 13.4395C29.7537 13.2833 29.8255 13.1928 29.8877 12.9742C29.8846 12.7889 29.8793 12.743 29.7515 12.616C29.7001 12.5632 29.7001 12.5632 29.6477 12.5093C29.6041 12.4662 29.5605 12.4232 29.5156 12.3789C29.4592 12.3204 29.4029 12.2618 29.3467 12.203C29.1833 12.0326 29.0179 11.8643 28.8518 11.6966C28.782 11.6259 28.7125 11.555 28.6433 11.4838C28.5424 11.38 28.4407 11.2772 28.3388 11.1745C28.2928 11.1267 28.2928 11.1267 28.2459 11.0779C28.1085 10.9412 28.0095 10.8582 27.8259 10.7897C27.4736 10.8058 27.2335 11.1134 26.9996 11.3514C26.9673 11.3839 26.935 11.4164 26.9017 11.4498C26.7994 11.5527 26.6974 11.656 26.5955 11.7593C26.5258 11.8295 26.4561 11.8996 26.3864 11.9698C26.2163 12.141 26.0465 12.3126 25.877 12.4844C25.7189 12.4233 25.5688 12.3589 25.4211 12.2759C24.7007 11.8783 23.9741 11.6157 23.1875 11.3769C23.1865 11.3099 23.1854 11.2429 23.1843 11.1738C23.1803 10.9244 23.1756 10.6749 23.1708 10.4255C23.1688 10.3177 23.1669 10.2099 23.1653 10.1021C23.1628 9.94679 23.1598 9.79155 23.1566 9.6363C23.1557 9.56435 23.1557 9.56435 23.1548 9.49094C23.149 9.2405 23.1341 9.02538 23.0293 8.79296C22.8959 8.72628 22.8023 8.73281 22.653 8.73173C22.5682 8.73097 22.5682 8.73097 22.4818 8.73019C22.4205 8.72997 22.3593 8.72975 22.2962 8.72952C22.2335 8.72921 22.1708 8.72891 22.1062 8.7286C21.9735 8.72811 21.8407 8.72776 21.7079 8.72756C21.5043 8.72705 21.3008 8.72541 21.0972 8.72375C20.9684 8.7234 20.8396 8.72313 20.7109 8.72292C20.6497 8.72227 20.5886 8.72162 20.5256 8.72095C20.4406 8.72119 20.4406 8.72119 20.3539 8.72143C20.304 8.72124 20.254 8.72105 20.2026 8.72085C20.0746 8.73067 20.0746 8.73067 19.983 8.80732C19.864 8.97401 19.8585 9.14152 19.8544 9.34147C19.8534 9.38685 19.8523 9.43224 19.8512 9.47899C19.8504 9.52751 19.8495 9.57602 19.8486 9.626C19.8469 9.70105 19.8469 9.70105 19.8452 9.77761C19.8418 9.93719 19.8387 10.0968 19.8356 10.2563C19.8333 10.3646 19.831 10.4729 19.8287 10.5812C19.823 10.8464 19.8177 11.1117 19.8125 11.3769C19.7789 11.3875 19.7452 11.3981 19.7106 11.409C18.5046 11.7873 18.5046 11.7873 17.3966 12.3855C17.3411 12.4181 17.2857 12.4507 17.2285 12.4844C17.0005 12.422 16.8411 12.2136 16.6814 12.0493C16.6494 12.0169 16.6175 11.9846 16.5845 11.9512C16.448 11.813 16.3121 11.6741 16.1762 11.5354C16.0768 11.434 15.977 11.333 15.8772 11.2319C15.8467 11.2005 15.8161 11.1691 15.7846 11.1367C15.531 10.8736 15.531 10.8736 15.1858 10.7919C14.9256 10.8791 14.7715 11.0531 14.5809 11.2455C14.5405 11.2855 14.5001 11.3256 14.4585 11.3668C14.3734 11.4515 14.2886 11.5365 14.2041 11.6219C14.0749 11.7521 13.9442 11.8808 13.8133 12.0093C13.7307 12.0919 13.6482 12.1746 13.5658 12.2574C13.5266 12.2957 13.4875 12.334 13.4472 12.3734C13.2772 12.5474 13.1789 12.6589 13.1081 12.8953C13.1158 13.0787 13.1268 13.1287 13.2539 13.2556C13.2881 13.2908 13.3223 13.326 13.3575 13.3623C13.3994 13.4032 13.4413 13.4442 13.4844 13.4863C13.5359 13.5385 13.5873 13.5909 13.6387 13.6433C13.8133 13.8209 13.9899 13.9964 14.1666 14.1719C14.2285 14.2334 14.2903 14.295 14.3521 14.3566C14.5022 14.5061 14.6524 14.6555 14.8027 14.8047C14.7398 14.9686 14.6718 15.122 14.5846 15.2743C14.178 16.0034 13.9231 16.7464 13.6953 17.5469C13.6646 17.5472 13.6339 17.5475 13.6023 17.5478C13.2832 17.5512 12.9641 17.5556 12.6451 17.5607C12.526 17.5625 12.4068 17.5639 12.2877 17.5651C12.1166 17.5669 11.9455 17.5697 11.7744 17.5726C11.6943 17.5731 11.6943 17.5731 11.6126 17.5736C11.563 17.5747 11.5134 17.5757 11.4623 17.5768C11.4186 17.5774 11.3749 17.578 11.3299 17.5786C11.1886 17.6049 11.1434 17.6429 11.0586 17.7578C11.0039 17.9107 10.999 18.0545 10.9982 18.216C10.9979 18.2648 10.9975 18.3135 10.9972 18.3638C10.9971 18.4161 10.9971 18.4684 10.997 18.5222C10.9968 18.5763 10.9967 18.6304 10.9965 18.6862C10.9962 18.8005 10.9961 18.9148 10.9961 19.0291C10.996 19.2039 10.995 19.3786 10.994 19.5533C10.9939 19.6645 10.9938 19.7756 10.9937 19.8867C10.9933 19.9389 10.993 19.9911 10.9926 20.0449C10.9889 20.3918 10.9889 20.3918 11.1113 20.7109C11.1567 20.733 11.202 20.7551 11.2487 20.7779C11.375 20.8691 11.375 20.8691 11.3964 20.9652C11.401 21.0869 11.398 21.2057 11.3915 21.3273C11.3903 21.3693 11.3891 21.4114 11.3879 21.4547C11.3848 21.5584 11.3801 21.662 11.375 21.7656C10.9706 21.7101 10.6055 21.6254 10.343 21.291C10.173 21.0268 10.103 20.8217 10.1001 20.505C10.0994 20.4409 10.0987 20.3768 10.098 20.3108C10.0976 20.2414 10.0972 20.1721 10.0968 20.1006C10.0966 20.0652 10.0964 20.0298 10.0962 19.9933C10.0951 19.8058 10.0943 19.6183 10.0938 19.4307C10.0932 19.2379 10.0914 19.0451 10.0893 18.8522C10.0879 18.7032 10.0875 18.5542 10.0873 18.4053C10.0869 18.2999 10.0856 18.1945 10.0841 18.0891C10.0852 17.6469 10.126 17.3507 10.4221 17.0068C10.4559 16.9783 10.4898 16.9499 10.5247 16.9206C10.5583 16.8914 10.5918 16.8622 10.6264 16.8321C10.9103 16.6452 11.1886 16.6357 11.5163 16.6401C11.5806 16.6403 11.5806 16.6403 11.6462 16.6405C11.7821 16.6411 11.918 16.6424 12.054 16.6438C12.1465 16.6443 12.2391 16.6448 12.3316 16.6452C12.5577 16.6464 12.7837 16.6482 13.0098 16.6504C13.018 16.607 13.018 16.607 13.0264 16.5627C13.0871 16.2643 13.1786 15.9964 13.2998 15.7176C13.3323 15.6417 13.3647 15.5657 13.397 15.4896C13.4184 15.4403 13.4184 15.4403 13.4402 15.39C13.4963 15.2495 13.543 15.1066 13.5899 14.9629C13.5596 14.9334 13.5293 14.904 13.4981 14.8736C13.359 14.7379 13.2207 14.6016 13.0823 14.4652C13.0108 14.3957 13.0108 14.3957 12.9379 14.3248C12.5295 13.9209 12.1647 13.5526 12.1463 12.9557C12.1437 12.8996 12.1411 12.8435 12.1384 12.7857C12.2084 12.2893 12.5115 11.942 12.8596 11.6031C12.9006 11.5622 12.9416 11.5213 12.9839 11.4792C13.0701 11.3936 13.1565 11.3082 13.2433 11.2232C13.3757 11.0934 13.5071 10.9626 13.6384 10.8317C13.7226 10.7482 13.8069 10.6648 13.8912 10.5814C13.9303 10.5426 13.9694 10.5038 14.0096 10.4639C14.3775 10.1044 14.6816 9.88086 15.2114 9.82787C15.8776 9.85566 16.2552 10.2508 16.6847 10.7046C16.7429 10.7647 16.8013 10.8247 16.8597 10.8846C17.0012 11.0302 17.1416 11.1769 17.2813 11.3242C17.3107 11.3107 17.3402 11.2971 17.3705 11.2832C17.5066 11.2208 17.6428 11.1588 17.7789 11.0968C17.8253 11.0755 17.8716 11.0542 17.9193 11.0322C18.6702 10.6914 18.6702 10.6914 18.9688 10.6914C18.9677 10.6329 18.9666 10.5744 18.9654 10.5141C18.9616 10.2956 18.9592 10.077 18.9572 9.85841C18.9561 9.7641 18.9547 9.66978 18.9529 9.57548C18.9503 9.43933 18.9491 9.30322 18.9482 9.16705C18.9471 9.12539 18.946 9.08373 18.9449 9.04082C18.9447 8.68648 19.0498 8.41656 19.2815 8.14738C19.3153 8.11896 19.3492 8.09055 19.384 8.06127C19.4176 8.03204 19.4512 8.00281 19.4858 7.97269C19.722 7.81718 19.9581 7.77776 20.2368 7.77569Z" fill="#EF7D00"/>
<path d="M24.9934 14.3478C25.1333 14.4614 25.2682 14.5789 25.4023 14.6992C25.4382 14.7275 25.474 14.7559 25.5109 14.7851C26.5672 15.6331 27.2351 17.0634 27.4062 18.3906C27.4119 18.5379 27.4113 18.6849 27.4095 18.8323C27.4093 18.8711 27.4091 18.9099 27.4088 18.9499C27.4082 19.0447 27.4073 19.1395 27.4062 19.2344C27.2667 19.2358 27.1272 19.2368 26.9877 19.2377C26.9479 19.2381 26.9081 19.2385 26.8671 19.239C26.7655 19.2394 26.664 19.2371 26.5625 19.2344C26.4647 19.1365 26.4914 18.9949 26.4811 18.8636C26.3721 17.5275 25.7962 16.2712 24.7695 15.3847C24.0736 14.8381 23.3163 14.4587 22.4492 14.2773C22.4018 14.2673 22.3543 14.2572 22.3054 14.2468C20.982 14.0763 19.6885 14.3382 18.593 15.1091C17.4842 15.9678 16.7628 17.101 16.543 18.4961C16.5247 18.6816 16.5108 18.8663 16.5014 19.0525C16.4902 19.1816 16.4902 19.1816 16.4375 19.2344C16.2953 19.2382 16.1545 19.2392 16.0123 19.2377C15.9723 19.2374 15.9323 19.2372 15.8911 19.2369C15.792 19.2363 15.6929 19.2354 15.5937 19.2344C15.5212 17.7549 16.0485 16.3903 17.0176 15.2793C17.046 15.2433 17.0744 15.2072 17.1037 15.1701C18.9556 12.8714 22.69 12.6902 24.9934 14.3478Z" fill="#EF7D00"/>
<path d="M30.1882 19.6235C30.5539 19.8874 30.7867 20.2064 30.9922 20.6055C31.0142 20.647 31.0361 20.6884 31.0587 20.7311C31.3048 21.2819 31.2918 22.0171 31.1207 22.5896C30.9992 22.8925 30.8295 23.1489 30.6231 23.4004C30.5928 23.4379 30.5626 23.4753 30.5314 23.5139C30.1129 23.9808 29.5018 24.2445 28.8828 24.2969C28.8468 24.3 28.8108 24.303 28.7736 24.3062C28.6677 24.3102 28.5666 24.3059 28.4609 24.2969C28.4184 24.2933 28.3758 24.2897 28.332 24.286C27.7326 24.2065 27.1442 23.9069 26.7353 23.4591C26.2071 22.7492 26.0676 22.0559 26.1406 21.1856C26.1836 20.973 26.2503 20.7967 26.3516 20.6055C26.387 20.5368 26.387 20.5368 26.4231 20.4667C26.7781 19.8288 27.3171 19.4322 28.0144 19.2183C28.7944 19.062 29.5174 19.1931 30.1882 19.6235ZM27.8281 20.2891C27.7952 20.3076 27.7623 20.3261 27.7284 20.3451C27.3659 20.5721 27.1483 20.9369 27.0371 21.3438C26.9732 21.8861 27.0357 22.3177 27.3535 22.7676C27.6684 23.132 28.0617 23.3336 28.5368 23.3971C29.0335 23.4248 29.4561 23.2455 29.832 22.9258C30.231 22.4972 30.3378 22.1208 30.3252 21.5407C30.286 21.1247 30.1321 20.7934 29.832 20.5C29.2346 20.0398 28.5037 19.8783 27.8281 20.2891Z" fill="#36454F"/>
<path d="M15.8445 19.6235C16.2101 19.8874 16.443 20.2064 16.6484 20.6055C16.6704 20.647 16.6924 20.6884 16.715 20.7311C16.961 21.2819 16.9481 22.0171 16.777 22.5896C16.6554 22.8925 16.4857 23.1489 16.2793 23.4004C16.2491 23.4379 16.2188 23.4753 16.1876 23.5139C15.7691 23.9808 15.158 24.2445 14.5391 24.2969C14.503 24.3 14.467 24.303 14.4299 24.3062C14.324 24.3102 14.2228 24.3059 14.1172 24.2969C14.0746 24.2933 14.0321 24.2897 13.9882 24.286C13.3888 24.2065 12.8004 23.9069 12.3916 23.4591C11.8634 22.7492 11.7238 22.0559 11.7969 21.1856C11.8399 20.973 11.9066 20.7967 12.0078 20.6055C12.0432 20.5368 12.0432 20.5368 12.0793 20.4667C12.4344 19.8288 12.9734 19.4322 13.6706 19.2183C14.4506 19.062 15.1736 19.1931 15.8445 19.6235ZM13.4844 20.2891C13.4515 20.3076 13.4186 20.3261 13.3847 20.3451C13.0221 20.5721 12.8045 20.9369 12.6934 21.3438C12.6294 21.8861 12.692 22.3177 13.0098 22.7676C13.3247 23.132 13.718 23.3336 14.193 23.3971C14.6898 23.4248 15.1124 23.2455 15.4883 22.9258C15.8873 22.4972 15.9941 22.1208 15.9814 21.5407C15.9423 21.1247 15.7884 20.7934 15.4883 20.5C14.8908 20.0398 14.16 19.8783 13.4844 20.2891Z" fill="#36454F"/>
<path d="M23.0163 17.936C23.382 18.1999 23.6148 18.5189 23.8203 18.918C23.8423 18.9595 23.8642 19.0009 23.8869 19.0436C24.1329 19.5944 24.12 20.3296 23.9489 20.9021C23.8273 21.205 23.6576 21.4614 23.4512 21.7129C23.4209 21.7504 23.3907 21.7878 23.3595 21.8264C22.941 22.2933 22.3299 22.557 21.7109 22.6094C21.6749 22.6125 21.6389 22.6155 21.6018 22.6187C21.4958 22.6227 21.3947 22.6184 21.2891 22.6094C21.2465 22.6058 21.204 22.6022 21.1601 22.5985C20.5607 22.519 19.9723 22.2194 19.5635 21.7716C19.0352 21.0617 18.8957 20.3684 18.9688 19.4981C19.0118 19.2855 19.0784 19.1092 19.1797 18.918C19.2151 18.8493 19.2151 18.8493 19.2512 18.7792C19.6063 18.1413 20.1453 17.7447 20.8425 17.5308C21.6225 17.3745 22.3455 17.5056 23.0163 17.936ZM20.6563 18.6016C20.6234 18.6201 20.5905 18.6386 20.5566 18.6576C20.194 18.8846 19.9764 19.2494 19.8652 19.6563C19.8013 20.1986 19.8639 20.6302 20.1816 21.0801C20.4966 21.4445 20.8898 21.6461 21.3649 21.7096C21.8616 21.7373 22.2842 21.558 22.6602 21.2383C23.0591 20.8097 23.1659 20.4333 23.1533 19.8532C23.1142 19.4372 22.9603 19.1059 22.6602 18.8125C22.0627 18.3523 21.3318 18.1908 20.6563 18.6016Z" fill="#36454F"/>
<path d="M19.8125 32.2598C20.9263 32.2598 22.04 32.2598 23.1875 32.2598C23.1875 32.5556 23.1875 32.8514 23.1875 33.1562C22.0738 33.1562 20.96 33.1562 19.8125 33.1562C19.8125 32.8604 19.8125 32.5646 19.8125 32.2598Z" fill="#36454F"/>
</g>
<defs>
<clipPath id="clip0_4322_566">
<rect width="27" height="27" fill="white" transform="translate(8 7)"/>
</clipPath>
</defs>
</svg>
