<svg width="42" height="42" viewBox="0 0 42 42" fill="none" xmlns="http://www.w3.org/2000/svg">
<circle cx="21" cy="21" r="20" fill="white" stroke="#D3D3D3"/>
<circle cx="21.9091" cy="12.7273" r="5.37727" stroke="#36454F" stroke-width="0.7"/>
<path d="M23.2937 18.4545H20.5245C17.9909 18.4545 15.8253 20.0305 14.9546 22.2555L14.1253 22.1364C15.0672 19.5128 17.5767 17.6364 20.5245 17.6364H23.2937C27.0477 17.6364 30.0909 20.6796 30.0909 24.4336C30.0909 24.8172 30.0194 25.1842 29.889 25.5218L28.942 25.6226C28.9302 25.6251 28.9233 25.6246 28.9233 25.6246L28.942 25.6226C29.0144 25.6073 29.2727 25.4796 29.2727 24.4336C29.2727 21.1314 26.5958 18.4545 23.2937 18.4545Z" fill="#36454F"/>
<path fill-rule="evenodd" clip-rule="evenodd" d="M26.6762 25.0935L26.7965 25.0921C27.1712 25.088 27.546 25.085 27.9208 25.083C28.1135 25.0819 28.3061 25.0805 28.4988 25.0782C28.6849 25.076 28.8709 25.0748 29.057 25.0743C29.1278 25.0739 29.1987 25.0732 29.2695 25.0721C29.3691 25.0706 29.4686 25.0705 29.5681 25.0705L29.7395 25.0691C30.0209 25.1125 30.206 25.2943 30.4006 25.4952L30.5144 25.612L30.6346 25.7367L30.7608 25.8665C30.8935 26.0029 31.0259 26.1396 31.1583 26.2764C31.2905 26.4128 31.4227 26.5492 31.5552 26.6853C31.6374 26.7699 31.7195 26.8546 31.8014 26.9395C31.9713 27.1145 32.1413 27.2848 32.326 27.4435C32.5074 27.6018 32.5184 27.6223 32.5455 27.8622C32.542 28.0814 32.4712 28.18 32.3229 28.3322L32.2346 28.4164L32.1442 28.5075C32.0487 28.603 31.952 28.697 31.8552 28.7911C31.7916 28.8544 31.7281 28.9178 31.6647 28.9813C31.3918 29.2534 31.1159 29.5198 30.8261 29.7731C30.6681 29.9156 30.5219 30.0702 30.3746 30.2239C30.3144 30.2866 30.2542 30.3492 30.1938 30.4117L30.1149 30.494C30.0172 30.5868 29.967 30.6104 29.8324 30.6065L29.6891 30.5956C29.1148 30.5516 29.1148 30.5516 28.5906 30.7429C28.3974 30.9443 28.2596 31.1759 28.1242 31.4202C28.0374 31.5649 27.943 31.6643 27.8161 31.7738C27.6674 31.8054 27.6674 31.8054 27.5187 31.7738C27.299 31.5773 27.1366 31.3436 26.9683 31.1014L26.9673 31.1001L26.8831 30.9802C26.7418 30.7785 26.603 30.5754 26.4669 30.37L26.3917 30.2567C26.3446 30.1853 26.2978 30.1137 26.2513 30.0418C26.1971 29.9595 26.1396 29.8795 26.0814 29.8001H25.9823C25.9118 29.9051 25.8476 30.0102 25.7841 30.1195C25.5572 30.4998 25.3206 30.873 25.0796 31.244C25.0392 31.3061 24.999 31.3684 24.9589 31.4307C24.9019 31.5193 24.8444 31.6076 24.7869 31.6959L24.6856 31.8522C24.5718 32.0074 24.4925 32.0702 24.3035 32.0996C24.0761 32.0671 23.9783 31.925 23.8393 31.7445C23.7768 31.6582 23.7162 31.5708 23.6561 31.4828L23.5954 31.3954L23.5339 31.3065L23.4722 31.2204C23.4052 31.1159 23.4052 31.1159 23.3576 30.9996C23.2894 30.8531 23.2299 30.7656 23.1078 30.6604C22.8244 30.5914 22.5448 30.6002 22.2549 30.6049C22.1708 30.6046 22.0868 30.6041 22.0028 30.6034C21.7823 30.6022 21.5619 30.6036 21.3414 30.6057C21.1338 30.6072 20.9263 30.6064 20.7187 30.6057L20.6657 30.6056C20.2242 30.6045 19.7828 30.6062 19.3413 30.6098L19.2972 30.7264C19.0698 31.2897 18.6619 31.7486 18.251 32.1787L18.1433 32.2999C17.4637 33.0447 16.4744 33.5296 15.5252 33.7981L15.3546 33.8472C13.7801 34.2218 12.1318 33.8909 10.7674 33.039C9.3835 32.1184 8.48028 30.7353 8.11245 29.1036C7.80197 27.4527 8.14134 25.7765 9.0448 24.3812C9.9488 23.0391 11.3204 22.1527 12.8763 21.8303C13.5213 21.7115 14.2121 21.6833 14.857 21.8105C15.1294 21.873 15.7977 21.981 16.0703 22.1582L16.2194 22.2196C16.926 22.5185 17.5268 22.9043 18.1023 23.4234L18.2049 23.5153C18.4765 23.7752 18.6925 24.0789 18.9096 24.3861L18.9735 24.4762C19.0439 24.5874 19.0439 24.5874 19.0998 24.7157C19.1676 24.8629 19.2321 24.9745 19.3413 25.0935C19.5521 25.1671 19.7546 25.1576 19.9756 25.1509L20.1691 25.1511C20.3436 25.1513 20.5179 25.1483 20.6924 25.1448C20.875 25.1416 21.0575 25.1413 21.2401 25.1407C21.5856 25.1391 21.9309 25.135 22.2764 25.1299C22.6697 25.1242 23.0631 25.1215 23.4565 25.1189C24.2654 25.1136 25.8673 25.1047 26.6762 25.0935ZM10.4923 23.8866L10.6187 23.7776C11.5848 22.9068 12.8544 22.4744 14.1366 22.4955C15.5099 22.541 16.8259 23.1239 17.7774 24.142L17.904 24.2837C18.1792 24.5902 18.3964 24.9073 18.5917 25.2706L18.5964 25.2796L18.6115 25.3086C18.687 25.4536 18.763 25.5977 18.8503 25.7359C18.9695 25.8193 18.9695 25.8193 19.2403 25.8189L19.3634 25.8164C19.5021 25.8155 19.6408 25.8144 19.7795 25.8124C19.8814 25.8109 19.9833 25.8097 20.0852 25.8088C20.3045 25.8071 20.5238 25.8053 20.7432 25.803C21.0969 25.7991 21.4507 25.7964 21.8045 25.7949L21.9847 25.7942L22.3504 25.7928C23.1768 25.7896 24.0033 25.7863 24.8297 25.7767C25.3917 25.77 25.9536 25.765 26.5157 25.7642C26.813 25.7642 27.1103 25.7647 27.4076 25.7601C27.691 25.7549 27.9743 25.7506 28.2578 25.7515C28.3631 25.7523 28.4685 25.7527 28.5738 25.7527C28.8085 25.7456 29.0404 25.7417 29.2748 25.7566C29.7441 25.8212 30.0117 26.1406 30.3071 26.4937C30.4317 26.6457 30.5597 26.7803 30.7063 26.9103C30.8121 27.0013 30.9141 27.0917 31.0146 27.189L31.118 27.2949C31.2191 27.3978 31.3172 27.502 31.4109 27.6121L31.4905 27.7074C31.5378 27.7639 31.585 27.8204 31.6322 27.8769C31.4642 28.0495 31.2961 28.222 31.1279 28.3944C31.0585 28.4654 30.9891 28.5365 30.9198 28.6076C30.7217 28.8111 30.5235 29.0144 30.3232 29.2155C30.2386 29.3002 30.1547 29.3851 30.0735 29.4732L30.0089 29.5443C29.7434 29.821 29.5536 29.9021 29.173 29.9062C29.0621 29.9029 28.9511 29.9012 28.8401 29.9011L28.6789 29.9013C28.5895 29.8993 28.5001 29.899 28.4108 29.9013C28.2621 29.9519 28.2621 29.9519 28.1952 30.0273L28.1283 30.1229L28.0552 30.2262L27.9802 30.3346C27.9304 30.4053 27.8807 30.476 27.831 30.5467L27.7169 30.711C27.5735 30.6241 27.5735 30.6241 27.5062 30.5322L27.4445 30.4402L27.3739 30.3361C27.165 30.0242 26.9519 29.7154 26.7314 29.4119L26.6545 29.3066C26.5854 29.2111 26.516 29.1162 26.4441 29.0228L26.3788 28.9397L26.2594 28.7871C26.131 28.6867 26.131 28.6867 25.9591 28.672C25.7513 28.7495 25.6958 28.8215 25.5798 29.0066C25.5332 29.0862 25.4855 29.1651 25.437 29.2435L25.3582 29.3707C25.2382 29.5686 25.1164 29.7651 24.9927 29.9606L24.7929 30.2745L24.6975 30.4267L24.607 30.5699C24.501 30.7386 24.3905 30.8767 24.2477 31.0147C24.1816 30.9098 24.1152 30.8051 24.0484 30.7007L23.9659 30.5718L23.8862 30.4453L23.8073 30.3228C23.7299 30.2011 23.6504 30.101 23.5509 29.9973C23.3919 29.8925 23.2829 29.8773 23.0956 29.8755L22.9737 29.8775C22.8375 29.8771 22.7014 29.8771 22.5652 29.8783C22.4679 29.8793 22.3705 29.8799 22.2732 29.8801C22.0704 29.8803 21.8675 29.8807 21.6647 29.882C21.4007 29.884 21.1367 29.8858 20.8727 29.8863C20.6173 29.8868 20.3619 29.8875 20.1065 29.8886L19.9602 29.8892C19.8187 29.8897 19.6773 29.8903 19.5358 29.8913L19.4066 29.8923C19.2687 29.8928 19.1322 29.8955 18.9944 29.9013C18.8472 29.9764 18.8472 29.9764 18.6101 30.4171C18.3573 30.8982 18.0646 31.3189 17.6776 31.6981C16.6027 32.7056 15.2508 33.2981 13.7766 33.2337C12.279 33.1331 11.0015 32.4751 10.0058 31.3359C8.98787 30.1162 8.69326 28.7381 8.785 27.1684C8.96715 25.907 9.54173 24.7247 10.4923 23.8866Z" fill="#EF7D00"/>
<circle cx="12.5" cy="27.8636" r="1.74545" stroke="#EF7D00" stroke-width="0.6"/>
</svg>
