<svg width="42" height="42" viewBox="0 0 42 42" fill="none" xmlns="http://www.w3.org/2000/svg">
<circle cx="21" cy="21" r="20" fill="white" stroke="#D3D3D3"/>
<path d="M20.498 7.63279C20.5628 7.65073 20.6275 7.66868 20.6942 7.68717C21.7379 8.00633 22.6165 8.56668 23.3984 9.32029C23.4396 9.35754 23.4808 9.39479 23.5233 9.43317C24.566 10.4054 25.2154 11.9352 25.3086 13.3468C25.3468 14.5028 25.233 15.5354 24.7695 16.5976C24.7431 16.6592 24.7166 16.7208 24.6894 16.7843C24.0256 18.2153 22.81 19.2719 21.3945 19.9199C21.459 19.9283 21.5236 19.9366 21.59 19.9452C22.8872 20.1213 24.0372 20.4842 25.1578 21.1699C25.1906 21.1899 25.2234 21.2099 25.2572 21.2305C25.3496 21.291 25.3496 21.291 25.5078 21.4191C25.6659 21.5222 25.6659 21.5222 25.8611 21.4686C25.9317 21.4436 26.0018 21.4173 26.0714 21.3899C26.147 21.3634 26.2227 21.3372 26.2984 21.3112C26.3349 21.2983 26.3714 21.2855 26.409 21.2723C27.7145 20.8313 29.3822 21.0785 30.6019 21.6561C30.7701 21.7403 30.9345 21.8302 31.0977 21.9238C31.1512 21.9543 31.2048 21.9847 31.26 22.0161C31.7173 22.292 32.0974 22.6499 32.4687 23.0312C32.4949 23.0543 32.521 23.0774 32.5478 23.1013C33.5082 23.9816 34.0708 25.438 34.1722 26.7125C34.1792 26.9139 34.1809 27.1144 34.1793 27.3159C34.1791 27.369 34.1791 27.369 34.1788 27.4231C34.1676 29.1098 33.4987 30.596 32.3237 31.795C31.0413 33.0588 29.4389 33.5539 27.6686 33.541C26.2513 33.5224 24.8423 32.9754 23.816 31.9862C23.5847 31.7676 23.4004 31.77 23.0978 31.7712C23.0503 31.7709 23.0029 31.7707 22.954 31.7705C22.7943 31.7698 22.6346 31.7699 22.4749 31.77C22.3606 31.7697 22.2464 31.7693 22.1321 31.7689C21.8857 31.7681 21.6392 31.7677 21.3928 31.7674C21.0027 31.7671 20.6126 31.7659 20.2226 31.7647C19.3937 31.7621 18.5649 31.7604 17.7361 31.7588C16.8431 31.757 15.9502 31.7551 15.0573 31.7522C14.6699 31.751 14.2826 31.7503 13.8953 31.7499C13.6535 31.7496 13.4117 31.7489 13.1699 31.748C13.0583 31.7477 12.9467 31.7476 12.835 31.7476C11.6029 31.7481 10.6138 31.6203 9.67432 30.7403C9.11711 30.1557 8.83744 29.4525 8.83304 28.6516C8.83274 28.6084 8.83244 28.5653 8.83213 28.5208C8.83163 28.4293 8.83128 28.3378 8.83108 28.2463C8.83058 28.1096 8.82894 27.9728 8.82727 27.836C8.82236 27.0724 8.91632 26.3502 9.14368 25.6185C9.15712 25.5748 9.17056 25.5312 9.18441 25.4862C9.5133 24.454 10.0236 23.5272 10.7422 22.7148C10.7654 22.6879 10.7886 22.6609 10.8126 22.6331C11.2048 22.1786 11.6265 21.7999 12.1133 21.4492C12.1448 21.4263 12.1762 21.4034 12.2087 21.3798C13.4109 20.5137 14.81 20.0535 16.2793 19.9199C16.227 19.8956 16.1746 19.8712 16.1207 19.8462C14.5461 19.0974 13.3088 17.8427 12.7145 16.1844C12.5056 15.5681 12.3581 14.9287 12.3242 14.2773C12.3214 14.2293 12.3186 14.1812 12.3158 14.1317C12.2618 12.2994 12.9868 10.6446 14.2227 9.32029C15.8169 7.72602 18.308 7.00993 20.498 7.63279ZM14.5805 10.1224C13.6037 11.163 13.0695 12.6517 13.1056 14.0726C13.169 15.0694 13.4187 15.9359 13.9062 16.8086C13.9349 16.8606 13.9636 16.9126 13.9932 16.9662C14.242 17.3855 14.5673 17.7292 14.9082 18.0742C14.9641 18.132 14.9641 18.132 15.0211 18.191C16.003 19.1362 17.4527 19.653 18.8045 19.6585C19.7253 19.6396 20.5717 19.4438 21.3945 19.0234C21.445 18.9984 21.4955 18.9734 21.5476 18.9476C21.9013 18.765 22.2005 18.544 22.502 18.2851C22.5662 18.2324 22.5662 18.2324 22.6317 18.1786C23.6771 17.2899 24.3248 15.9992 24.5059 14.6465C24.614 13.1241 24.3096 11.5808 23.2952 10.3919C23.2597 10.3515 23.2241 10.3111 23.1875 10.2695C23.1525 10.227 23.1175 10.1844 23.0814 10.1406C22.1007 8.98404 20.6767 8.34941 19.183 8.21946C17.3719 8.14766 15.8477 8.85739 14.5805 10.1224ZM11.375 23.1894C10.6604 24.0308 10.1801 24.964 9.85889 26.0173C9.84315 26.0682 9.84315 26.0682 9.8271 26.1202C9.65239 26.7228 9.61509 27.3296 9.61522 27.9529C9.61499 28.0742 9.61306 28.1954 9.61108 28.3166C9.60619 28.9581 9.73234 29.4662 10.1094 29.9922C10.1665 30.0721 10.1665 30.0721 10.2247 30.1537C10.6579 30.6489 11.2614 30.8823 11.9023 30.9414C12.0581 30.9481 12.2136 30.9483 12.3695 30.9477C12.4146 30.9478 12.4598 30.9478 12.5063 30.9479C12.6566 30.9479 12.8069 30.9477 12.9571 30.9474C13.0653 30.9474 13.1734 30.9474 13.2815 30.9474C13.5744 30.9474 13.8672 30.9471 14.16 30.9467C14.4663 30.9464 14.7726 30.9464 15.0789 30.9463C15.6586 30.9461 16.2383 30.9457 16.818 30.9452C17.4781 30.9446 18.1382 30.9443 18.7983 30.944C20.1559 30.9435 21.5135 30.9426 22.8711 30.9414C22.842 30.8909 22.8128 30.8404 22.7828 30.7883C22.7443 30.7213 22.7058 30.6543 22.6673 30.5873C22.6482 30.5541 22.629 30.5209 22.6092 30.4867C22.4734 30.2499 22.3518 30.0123 22.2515 29.7582C22.2365 29.7208 22.2215 29.6834 22.2061 29.6449C21.5907 28.0669 21.6233 26.3273 22.2955 24.7712C22.5434 24.2311 22.8482 23.7422 23.2402 23.2949C23.2733 23.2536 23.3064 23.2124 23.3406 23.1699C23.6779 22.7652 24.0904 22.4644 24.5126 22.1545C24.6164 22.0783 24.7194 22.0012 24.8223 21.9238C23.5633 21.1801 22.2782 20.7045 20.8026 20.7024C20.7564 20.7022 20.7103 20.7019 20.6628 20.7016C20.5115 20.7009 20.3602 20.7005 20.2088 20.7002C20.1304 20.7 20.1304 20.7 20.0504 20.6997C19.7732 20.699 19.496 20.6985 19.2187 20.6982C18.9356 20.698 18.6526 20.6967 18.3695 20.6952C18.149 20.6942 17.9286 20.6939 17.7081 20.6938C17.604 20.6937 17.4998 20.6933 17.3956 20.6926C15.0586 20.6779 12.9619 21.4256 11.375 23.1894ZM23.817 23.7794C23.0593 24.6611 22.5317 25.8658 22.502 27.039C22.4999 27.0783 22.4979 27.1175 22.4958 27.1579C22.4509 28.6706 23.053 30.0379 24.0698 31.1344C25.0619 32.1572 26.449 32.7554 27.8732 32.7877C29.1692 32.7809 30.4245 32.3662 31.4141 31.5215C31.4631 31.4809 31.5122 31.4403 31.5628 31.3985C32.5505 30.547 33.1939 29.3334 33.3652 28.041C33.4479 26.8763 33.3114 25.865 32.7852 24.8242C32.7569 24.7684 32.7287 24.7126 32.6997 24.6551C32.0141 23.4006 30.8236 22.4897 29.4629 22.082C29.046 21.9724 28.6279 21.8948 28.1973 21.8711C28.1616 21.8689 28.1259 21.8667 28.0891 21.8645C26.4252 21.8143 24.9356 22.5856 23.817 23.7794Z" fill="#36454F"/>
<path d="M28.7063 23.8021C29.128 24.0505 29.4001 24.3637 29.5684 24.8242C29.6204 25.0256 29.6267 25.2132 29.6244 25.4208C29.6239 25.4771 29.6235 25.5335 29.623 25.5915C29.6223 25.6341 29.6217 25.6768 29.6211 25.7207C29.701 25.7174 29.701 25.7174 29.7826 25.7141C30.0372 25.7222 30.2535 25.7317 30.4511 25.9079C30.6832 26.1667 30.7346 26.3522 30.737 26.6994C30.7375 26.7582 30.738 26.817 30.7386 26.8776C30.7388 26.9409 30.739 27.0043 30.7392 27.0695C30.7395 27.1349 30.7398 27.2004 30.7402 27.2678C30.7406 27.4062 30.741 27.5447 30.7412 27.6832C30.7414 27.8247 30.7422 27.9661 30.7434 28.1076C30.745 28.312 30.7455 28.5164 30.7458 28.7208C30.7465 28.7837 30.7471 28.8466 30.7478 28.9114C30.7469 29.2568 30.7234 29.5221 30.5703 29.834C30.3088 30.089 30.0842 30.1056 29.7337 30.1061C29.6915 30.1064 29.6493 30.1067 29.6058 30.1069C29.4661 30.1077 29.3264 30.1081 29.1867 30.1083C29.0895 30.1087 28.9924 30.109 28.8952 30.1093C28.6914 30.1098 28.4876 30.1101 28.2839 30.1103C28.023 30.1106 27.7622 30.1119 27.5013 30.1134C27.3006 30.1143 27.0999 30.1146 26.8991 30.1147C26.803 30.1149 26.7069 30.1153 26.6107 30.116C26.476 30.1169 26.3414 30.1168 26.2067 30.1164C26.1672 30.1169 26.1276 30.1174 26.0869 30.1179C25.837 30.1159 25.6673 30.0713 25.4551 29.9394C25.2363 29.7029 25.1851 29.5328 25.1821 29.2158C25.1814 29.1539 25.1807 29.0919 25.18 29.028C25.1796 28.961 25.1793 28.8939 25.1789 28.8248C25.1784 28.7558 25.178 28.6868 25.1776 28.6157C25.1768 28.4695 25.1763 28.3232 25.1759 28.177C25.1753 27.9905 25.1735 27.804 25.1714 27.6176C25.1696 27.4388 25.1694 27.26 25.169 27.0813C25.1676 26.9815 25.1676 26.9815 25.1662 26.8796C25.1671 26.5033 25.1949 26.2496 25.4024 25.9316C25.6778 25.7127 25.9578 25.714 26.2988 25.7207C26.2964 25.6779 26.2939 25.6352 26.2914 25.5911C26.2743 25.0668 26.3424 24.639 26.6812 24.2243C27.2145 23.6671 27.9894 23.4687 28.7063 23.8021ZM27.2275 24.8098C27.0412 25.1285 27.0899 25.3198 27.0899 25.7207C27.6641 25.7207 28.2384 25.7207 28.8301 25.7207C28.8521 25.1694 28.8521 25.1694 28.5848 24.7331C28.3482 24.5221 28.1669 24.4313 27.8382 24.4373C27.5839 24.4763 27.3874 24.6113 27.2275 24.8098ZM25.9824 26.5117C25.9824 27.434 25.9824 28.3563 25.9824 29.3066C27.2876 29.3066 28.5928 29.3066 29.9375 29.3066C29.9375 28.3843 29.9375 27.462 29.9375 26.5117C28.6323 26.5117 27.3272 26.5117 25.9824 26.5117Z" fill="#EF7D00"/>
<path d="M28.2863 26.9962C28.6031 27.2445 28.6031 27.2445 28.6358 27.4706C28.6435 27.7822 28.6435 27.7822 28.5681 27.9304C28.4769 28.1159 28.4721 28.3187 28.4482 28.5222C28.4004 28.7033 28.3464 28.7731 28.1973 28.8848C28.0803 28.9128 28.0803 28.9128 27.96 28.9111C27.9004 28.9119 27.9004 28.9119 27.8397 28.9128C27.6747 28.8733 27.6139 28.8079 27.5117 28.6738C27.4718 28.5204 27.4718 28.5204 27.4524 28.3541C27.422 28.1033 27.422 28.1033 27.3008 27.8828C27.2598 27.6575 27.2508 27.4434 27.3661 27.2407C27.6145 26.9431 27.9082 26.8292 28.2863 26.9962Z" fill="#EF7D00"/>
</svg>
