<svg width="42" height="42" viewBox="0 0 42 42" fill="none" xmlns="http://www.w3.org/2000/svg">
<circle cx="21" cy="21" r="20" fill="white" stroke="#D3D3D3"/>
<mask id="path-2-outside-1_4339_6151" maskUnits="userSpaceOnUse" x="7" y="7" width="27" height="28" fill="black">
<rect fill="white" x="7" y="7" width="27" height="28"/>
<path d="M19.671 8.22349C19.7357 8.24143 19.8004 8.25938 19.8671 8.27787C20.9108 8.59702 21.7894 9.15738 22.5713 9.91099C22.6125 9.94824 22.6537 9.98549 22.6962 10.0239C23.7389 10.9961 24.3883 12.5259 24.4815 13.9375C24.5197 15.0935 24.4059 16.1261 23.9424 17.1883C23.916 17.2499 23.8896 17.3115 23.8623 17.375C23.1985 18.806 21.9829 19.8626 20.5674 20.5106C20.632 20.519 20.6965 20.5273 20.7629 20.5359C22.0601 20.712 23.2101 21.0749 24.3307 21.7606C24.3635 21.7806 24.3963 21.8006 24.4301 21.8212C24.5225 21.8817 24.5225 21.8817 24.6807 22.0098C24.8388 22.1129 24.8388 22.1129 25.034 22.0593C25.1046 22.0343 25.1747 22.008 25.2443 21.9806C25.3199 21.9541 25.3956 21.9279 25.4713 21.9019C25.5078 21.889 25.5443 21.8762 25.5819 21.863C26.8874 21.422 28.5551 21.6692 29.7748 22.2468C29.943 22.331 30.1074 22.4209 30.2706 22.5145C30.3241 22.545 30.3777 22.5754 30.4329 22.6068C30.8903 22.8827 31.2703 23.2406 31.6417 23.6219C31.6678 23.645 31.6939 23.6681 31.7208 23.692C32.6811 24.5723 33.2437 26.0287 33.3452 27.3032C33.3521 27.5046 33.3538 27.7051 33.3522 27.9066C33.352 27.9597 33.352 27.9597 33.3517 28.0138C33.3405 29.7005 32.6716 31.1867 31.4966 32.3857C30.2142 33.6495 28.6118 34.1445 26.8415 34.1317C25.4242 34.113 24.0153 33.5661 22.9889 32.5769C22.7576 32.3583 22.5733 32.3607 22.2707 32.3619C22.2232 32.3616 22.1758 32.3614 22.1269 32.3612C21.9672 32.3605 21.8075 32.3606 21.6478 32.3607C21.5336 32.3604 21.4193 32.36 21.3051 32.3596C21.0586 32.3588 20.8121 32.3584 20.5657 32.3581C20.1756 32.3578 19.7855 32.3566 19.3955 32.3554C18.5666 32.3528 17.7378 32.3511 16.909 32.3495C16.0161 32.3477 15.1231 32.3458 14.2302 32.3429C13.8428 32.3417 13.4555 32.341 13.0682 32.3406C12.8264 32.3403 12.5846 32.3396 12.3428 32.3387C12.2312 32.3384 12.1196 32.3383 12.0079 32.3383C10.7758 32.3388 9.7867 32.211 8.84723 31.331C8.29002 30.7464 8.01035 30.0432 8.00595 29.2423C8.00565 29.1991 8.00535 29.156 8.00504 29.1115C8.00454 29.02 8.0042 28.9285 8.00399 28.837C8.00349 28.7002 8.00185 28.5635 8.00018 28.4267C7.99528 27.6631 8.08924 26.9409 8.31659 26.2092C8.33003 26.1655 8.34347 26.1219 8.35732 26.0769C8.68621 25.0447 9.19647 24.1179 9.9151 23.3055C9.93832 23.2786 9.96154 23.2516 9.98547 23.2238C10.3777 22.7693 10.7994 22.3906 11.2862 22.0399C11.3177 22.017 11.3491 21.9941 11.3816 21.9705C12.5838 21.1044 13.9829 20.6442 15.4522 20.5106C15.3999 20.4863 15.3475 20.4619 15.2936 20.4368C13.7191 19.6881 12.4817 18.4334 11.8874 16.7751C11.6785 16.1588 11.531 15.5194 11.4971 14.868C11.4943 14.82 11.4916 14.7719 11.4887 14.7224C11.4347 12.8901 12.1598 11.2353 13.3956 9.91099C14.9898 8.31672 17.4809 7.60062 19.671 8.22349ZM13.7534 10.7131C12.7767 11.7537 12.2424 13.2424 12.2785 14.6633C12.3419 15.66 12.5916 16.5266 13.0792 17.3993C13.1078 17.4513 13.1365 17.5033 13.1661 17.5569C13.4149 17.9762 13.7402 18.3199 14.0811 18.6649C14.137 18.7227 14.137 18.7227 14.194 18.7817C15.1759 19.7269 16.6256 20.2437 17.9774 20.2492C18.8982 20.2303 19.7446 20.0345 20.5674 19.6141C20.618 19.5891 20.6685 19.5641 20.7205 19.5383C21.0742 19.3557 21.3734 19.1347 21.6749 18.8758C21.7391 18.8231 21.7391 18.8231 21.8046 18.7693C22.85 17.8806 23.4977 16.5899 23.6788 15.2372C23.787 13.7148 23.4825 12.1715 22.4681 10.9826C22.4326 10.9422 22.397 10.9018 22.3604 10.8602C22.3254 10.8177 22.2904 10.7751 22.2543 10.7313C21.2736 9.57474 19.8496 8.9401 18.3559 8.81016C16.5448 8.73836 15.0206 9.44809 13.7534 10.7131ZM10.5479 23.7801C9.83336 24.6215 9.35306 25.5547 9.0318 26.608C9.01606 26.6589 9.01606 26.6589 9.00001 26.7109C8.8253 27.3135 8.788 27.9203 8.78813 28.5436C8.7879 28.6649 8.78597 28.7861 8.78399 28.9073C8.77911 29.5488 8.90525 30.0569 9.28229 30.5829C9.33939 30.6628 9.33939 30.6628 9.39764 30.7444C9.83085 31.2396 10.4343 31.473 11.0753 31.5321C11.231 31.5388 11.3865 31.539 11.5424 31.5384C11.5876 31.5385 11.6327 31.5385 11.6792 31.5386C11.8295 31.5386 11.9798 31.5384 12.13 31.5381C12.2382 31.5381 12.3463 31.5381 12.4544 31.5381C12.7473 31.5381 13.0401 31.5378 13.3329 31.5374C13.6392 31.5371 13.9455 31.5371 14.2518 31.537C14.8315 31.5368 15.4112 31.5364 15.9909 31.5359C16.651 31.5353 17.3111 31.535 17.9712 31.5347C19.3288 31.5342 20.6864 31.5333 22.044 31.5321C22.0149 31.4816 21.9858 31.4311 21.9557 31.379C21.9172 31.312 21.8787 31.245 21.8402 31.178C21.8211 31.1448 21.8019 31.1116 21.7822 31.0774C21.6463 30.8406 21.5248 30.603 21.4244 30.3489C21.4094 30.3115 21.3944 30.2741 21.379 30.2356C20.7636 28.6576 20.7962 26.918 21.4684 25.3618C21.7163 24.8218 22.0211 24.3328 22.4131 23.8856C22.4463 23.8443 22.4794 23.8031 22.5135 23.7606C22.8508 23.3559 23.2633 23.0551 23.6855 22.7452C23.7893 22.669 23.8923 22.5919 23.9952 22.5145C22.7362 21.7708 21.4511 21.2952 19.9755 21.2931C19.9293 21.2929 19.8832 21.2926 19.8357 21.2923C19.6844 21.2916 19.5331 21.2912 19.3817 21.2909C19.3033 21.2907 19.3033 21.2907 19.2233 21.2904C18.9461 21.2897 18.6689 21.2892 18.3917 21.2889C18.1086 21.2887 17.8255 21.2874 17.5424 21.2859C17.3219 21.2849 17.1015 21.2846 16.881 21.2845C16.7769 21.2844 16.6727 21.284 16.5685 21.2833C14.2315 21.2686 12.1348 22.0163 10.5479 23.7801ZM22.9899 24.3701C22.2322 25.2518 21.7046 26.4565 21.6749 27.6297C21.6728 27.669 21.6708 27.7082 21.6687 27.7486C21.6238 29.2613 22.2259 30.6286 23.2427 31.7251C24.2348 32.7479 25.6219 33.3461 27.0461 33.3784C28.3421 33.3716 29.5974 32.9569 30.587 32.1122C30.6361 32.0716 30.6851 32.031 30.7357 31.9892C31.7234 31.1377 32.3669 29.9241 32.5381 28.6317C32.6208 27.467 32.4843 26.4557 31.9581 25.4149C31.9299 25.3591 31.9016 25.3033 31.8726 25.2458C31.187 23.9913 29.9965 23.0804 28.6358 22.6727C28.2189 22.5631 27.8008 22.4855 27.3702 22.4618C27.3345 22.4596 27.2988 22.4574 27.262 22.4552C25.5982 22.405 24.1085 23.1763 22.9899 24.3701Z"/>
</mask>
<path d="M19.671 8.22349C19.7357 8.24143 19.8004 8.25938 19.8671 8.27787C20.9108 8.59702 21.7894 9.15738 22.5713 9.91099C22.6125 9.94824 22.6537 9.98549 22.6962 10.0239C23.7389 10.9961 24.3883 12.5259 24.4815 13.9375C24.5197 15.0935 24.4059 16.1261 23.9424 17.1883C23.916 17.2499 23.8896 17.3115 23.8623 17.375C23.1985 18.806 21.9829 19.8626 20.5674 20.5106C20.632 20.519 20.6965 20.5273 20.7629 20.5359C22.0601 20.712 23.2101 21.0749 24.3307 21.7606C24.3635 21.7806 24.3963 21.8006 24.4301 21.8212C24.5225 21.8817 24.5225 21.8817 24.6807 22.0098C24.8388 22.1129 24.8388 22.1129 25.034 22.0593C25.1046 22.0343 25.1747 22.008 25.2443 21.9806C25.3199 21.9541 25.3956 21.9279 25.4713 21.9019C25.5078 21.889 25.5443 21.8762 25.5819 21.863C26.8874 21.422 28.5551 21.6692 29.7748 22.2468C29.943 22.331 30.1074 22.4209 30.2706 22.5145C30.3241 22.545 30.3777 22.5754 30.4329 22.6068C30.8903 22.8827 31.2703 23.2406 31.6417 23.6219C31.6678 23.645 31.6939 23.6681 31.7208 23.692C32.6811 24.5723 33.2437 26.0287 33.3452 27.3032C33.3521 27.5046 33.3538 27.7051 33.3522 27.9066C33.352 27.9597 33.352 27.9597 33.3517 28.0138C33.3405 29.7005 32.6716 31.1867 31.4966 32.3857C30.2142 33.6495 28.6118 34.1445 26.8415 34.1317C25.4242 34.113 24.0153 33.5661 22.9889 32.5769C22.7576 32.3583 22.5733 32.3607 22.2707 32.3619C22.2232 32.3616 22.1758 32.3614 22.1269 32.3612C21.9672 32.3605 21.8075 32.3606 21.6478 32.3607C21.5336 32.3604 21.4193 32.36 21.3051 32.3596C21.0586 32.3588 20.8121 32.3584 20.5657 32.3581C20.1756 32.3578 19.7855 32.3566 19.3955 32.3554C18.5666 32.3528 17.7378 32.3511 16.909 32.3495C16.0161 32.3477 15.1231 32.3458 14.2302 32.3429C13.8428 32.3417 13.4555 32.341 13.0682 32.3406C12.8264 32.3403 12.5846 32.3396 12.3428 32.3387C12.2312 32.3384 12.1196 32.3383 12.0079 32.3383C10.7758 32.3388 9.7867 32.211 8.84723 31.331C8.29002 30.7464 8.01035 30.0432 8.00595 29.2423C8.00565 29.1991 8.00535 29.156 8.00504 29.1115C8.00454 29.02 8.0042 28.9285 8.00399 28.837C8.00349 28.7002 8.00185 28.5635 8.00018 28.4267C7.99528 27.6631 8.08924 26.9409 8.31659 26.2092C8.33003 26.1655 8.34347 26.1219 8.35732 26.0769C8.68621 25.0447 9.19647 24.1179 9.9151 23.3055C9.93832 23.2786 9.96154 23.2516 9.98547 23.2238C10.3777 22.7693 10.7994 22.3906 11.2862 22.0399C11.3177 22.017 11.3491 21.9941 11.3816 21.9705C12.5838 21.1044 13.9829 20.6442 15.4522 20.5106C15.3999 20.4863 15.3475 20.4619 15.2936 20.4368C13.7191 19.6881 12.4817 18.4334 11.8874 16.7751C11.6785 16.1588 11.531 15.5194 11.4971 14.868C11.4943 14.82 11.4916 14.7719 11.4887 14.7224C11.4347 12.8901 12.1598 11.2353 13.3956 9.91099C14.9898 8.31672 17.4809 7.60062 19.671 8.22349ZM13.7534 10.7131C12.7767 11.7537 12.2424 13.2424 12.2785 14.6633C12.3419 15.66 12.5916 16.5266 13.0792 17.3993C13.1078 17.4513 13.1365 17.5033 13.1661 17.5569C13.4149 17.9762 13.7402 18.3199 14.0811 18.6649C14.137 18.7227 14.137 18.7227 14.194 18.7817C15.1759 19.7269 16.6256 20.2437 17.9774 20.2492C18.8982 20.2303 19.7446 20.0345 20.5674 19.6141C20.618 19.5891 20.6685 19.5641 20.7205 19.5383C21.0742 19.3557 21.3734 19.1347 21.6749 18.8758C21.7391 18.8231 21.7391 18.8231 21.8046 18.7693C22.85 17.8806 23.4977 16.5899 23.6788 15.2372C23.787 13.7148 23.4825 12.1715 22.4681 10.9826C22.4326 10.9422 22.397 10.9018 22.3604 10.8602C22.3254 10.8177 22.2904 10.7751 22.2543 10.7313C21.2736 9.57474 19.8496 8.9401 18.3559 8.81016C16.5448 8.73836 15.0206 9.44809 13.7534 10.7131ZM10.5479 23.7801C9.83336 24.6215 9.35306 25.5547 9.0318 26.608C9.01606 26.6589 9.01606 26.6589 9.00001 26.7109C8.8253 27.3135 8.788 27.9203 8.78813 28.5436C8.7879 28.6649 8.78597 28.7861 8.78399 28.9073C8.77911 29.5488 8.90525 30.0569 9.28229 30.5829C9.33939 30.6628 9.33939 30.6628 9.39764 30.7444C9.83085 31.2396 10.4343 31.473 11.0753 31.5321C11.231 31.5388 11.3865 31.539 11.5424 31.5384C11.5876 31.5385 11.6327 31.5385 11.6792 31.5386C11.8295 31.5386 11.9798 31.5384 12.13 31.5381C12.2382 31.5381 12.3463 31.5381 12.4544 31.5381C12.7473 31.5381 13.0401 31.5378 13.3329 31.5374C13.6392 31.5371 13.9455 31.5371 14.2518 31.537C14.8315 31.5368 15.4112 31.5364 15.9909 31.5359C16.651 31.5353 17.3111 31.535 17.9712 31.5347C19.3288 31.5342 20.6864 31.5333 22.044 31.5321C22.0149 31.4816 21.9858 31.4311 21.9557 31.379C21.9172 31.312 21.8787 31.245 21.8402 31.178C21.8211 31.1448 21.8019 31.1116 21.7822 31.0774C21.6463 30.8406 21.5248 30.603 21.4244 30.3489C21.4094 30.3115 21.3944 30.2741 21.379 30.2356C20.7636 28.6576 20.7962 26.918 21.4684 25.3618C21.7163 24.8218 22.0211 24.3328 22.4131 23.8856C22.4463 23.8443 22.4794 23.8031 22.5135 23.7606C22.8508 23.3559 23.2633 23.0551 23.6855 22.7452C23.7893 22.669 23.8923 22.5919 23.9952 22.5145C22.7362 21.7708 21.4511 21.2952 19.9755 21.2931C19.9293 21.2929 19.8832 21.2926 19.8357 21.2923C19.6844 21.2916 19.5331 21.2912 19.3817 21.2909C19.3033 21.2907 19.3033 21.2907 19.2233 21.2904C18.9461 21.2897 18.6689 21.2892 18.3917 21.2889C18.1086 21.2887 17.8255 21.2874 17.5424 21.2859C17.3219 21.2849 17.1015 21.2846 16.881 21.2845C16.7769 21.2844 16.6727 21.284 16.5685 21.2833C14.2315 21.2686 12.1348 22.0163 10.5479 23.7801ZM22.9899 24.3701C22.2322 25.2518 21.7046 26.4565 21.6749 27.6297C21.6728 27.669 21.6708 27.7082 21.6687 27.7486C21.6238 29.2613 22.2259 30.6286 23.2427 31.7251C24.2348 32.7479 25.6219 33.3461 27.0461 33.3784C28.3421 33.3716 29.5974 32.9569 30.587 32.1122C30.6361 32.0716 30.6851 32.031 30.7357 31.9892C31.7234 31.1377 32.3669 29.9241 32.5381 28.6317C32.6208 27.467 32.4843 26.4557 31.9581 25.4149C31.9299 25.3591 31.9016 25.3033 31.8726 25.2458C31.187 23.9913 29.9965 23.0804 28.6358 22.6727C28.2189 22.5631 27.8008 22.4855 27.3702 22.4618C27.3345 22.4596 27.2988 22.4574 27.262 22.4552C25.5982 22.405 24.1085 23.1763 22.9899 24.3701Z" fill="#36454F"/>
<path d="M19.671 8.22349C19.7357 8.24143 19.8004 8.25938 19.8671 8.27787C20.9108 8.59702 21.7894 9.15738 22.5713 9.91099C22.6125 9.94824 22.6537 9.98549 22.6962 10.0239C23.7389 10.9961 24.3883 12.5259 24.4815 13.9375C24.5197 15.0935 24.4059 16.1261 23.9424 17.1883C23.916 17.2499 23.8896 17.3115 23.8623 17.375C23.1985 18.806 21.9829 19.8626 20.5674 20.5106C20.632 20.519 20.6965 20.5273 20.7629 20.5359C22.0601 20.712 23.2101 21.0749 24.3307 21.7606C24.3635 21.7806 24.3963 21.8006 24.4301 21.8212C24.5225 21.8817 24.5225 21.8817 24.6807 22.0098C24.8388 22.1129 24.8388 22.1129 25.034 22.0593C25.1046 22.0343 25.1747 22.008 25.2443 21.9806C25.3199 21.9541 25.3956 21.9279 25.4713 21.9019C25.5078 21.889 25.5443 21.8762 25.5819 21.863C26.8874 21.422 28.5551 21.6692 29.7748 22.2468C29.943 22.331 30.1074 22.4209 30.2706 22.5145C30.3241 22.545 30.3777 22.5754 30.4329 22.6068C30.8903 22.8827 31.2703 23.2406 31.6417 23.6219C31.6678 23.645 31.6939 23.6681 31.7208 23.692C32.6811 24.5723 33.2437 26.0287 33.3452 27.3032C33.3521 27.5046 33.3538 27.7051 33.3522 27.9066C33.352 27.9597 33.352 27.9597 33.3517 28.0138C33.3405 29.7005 32.6716 31.1867 31.4966 32.3857C30.2142 33.6495 28.6118 34.1445 26.8415 34.1317C25.4242 34.113 24.0153 33.5661 22.9889 32.5769C22.7576 32.3583 22.5733 32.3607 22.2707 32.3619C22.2232 32.3616 22.1758 32.3614 22.1269 32.3612C21.9672 32.3605 21.8075 32.3606 21.6478 32.3607C21.5336 32.3604 21.4193 32.36 21.3051 32.3596C21.0586 32.3588 20.8121 32.3584 20.5657 32.3581C20.1756 32.3578 19.7855 32.3566 19.3955 32.3554C18.5666 32.3528 17.7378 32.3511 16.909 32.3495C16.0161 32.3477 15.1231 32.3458 14.2302 32.3429C13.8428 32.3417 13.4555 32.341 13.0682 32.3406C12.8264 32.3403 12.5846 32.3396 12.3428 32.3387C12.2312 32.3384 12.1196 32.3383 12.0079 32.3383C10.7758 32.3388 9.7867 32.211 8.84723 31.331C8.29002 30.7464 8.01035 30.0432 8.00595 29.2423C8.00565 29.1991 8.00535 29.156 8.00504 29.1115C8.00454 29.02 8.0042 28.9285 8.00399 28.837C8.00349 28.7002 8.00185 28.5635 8.00018 28.4267C7.99528 27.6631 8.08924 26.9409 8.31659 26.2092C8.33003 26.1655 8.34347 26.1219 8.35732 26.0769C8.68621 25.0447 9.19647 24.1179 9.9151 23.3055C9.93832 23.2786 9.96154 23.2516 9.98547 23.2238C10.3777 22.7693 10.7994 22.3906 11.2862 22.0399C11.3177 22.017 11.3491 21.9941 11.3816 21.9705C12.5838 21.1044 13.9829 20.6442 15.4522 20.5106C15.3999 20.4863 15.3475 20.4619 15.2936 20.4368C13.7191 19.6881 12.4817 18.4334 11.8874 16.7751C11.6785 16.1588 11.531 15.5194 11.4971 14.868C11.4943 14.82 11.4916 14.7719 11.4887 14.7224C11.4347 12.8901 12.1598 11.2353 13.3956 9.91099C14.9898 8.31672 17.4809 7.60062 19.671 8.22349ZM13.7534 10.7131C12.7767 11.7537 12.2424 13.2424 12.2785 14.6633C12.3419 15.66 12.5916 16.5266 13.0792 17.3993C13.1078 17.4513 13.1365 17.5033 13.1661 17.5569C13.4149 17.9762 13.7402 18.3199 14.0811 18.6649C14.137 18.7227 14.137 18.7227 14.194 18.7817C15.1759 19.7269 16.6256 20.2437 17.9774 20.2492C18.8982 20.2303 19.7446 20.0345 20.5674 19.6141C20.618 19.5891 20.6685 19.5641 20.7205 19.5383C21.0742 19.3557 21.3734 19.1347 21.6749 18.8758C21.7391 18.8231 21.7391 18.8231 21.8046 18.7693C22.85 17.8806 23.4977 16.5899 23.6788 15.2372C23.787 13.7148 23.4825 12.1715 22.4681 10.9826C22.4326 10.9422 22.397 10.9018 22.3604 10.8602C22.3254 10.8177 22.2904 10.7751 22.2543 10.7313C21.2736 9.57474 19.8496 8.9401 18.3559 8.81016C16.5448 8.73836 15.0206 9.44809 13.7534 10.7131ZM10.5479 23.7801C9.83336 24.6215 9.35306 25.5547 9.0318 26.608C9.01606 26.6589 9.01606 26.6589 9.00001 26.7109C8.8253 27.3135 8.788 27.9203 8.78813 28.5436C8.7879 28.6649 8.78597 28.7861 8.78399 28.9073C8.77911 29.5488 8.90525 30.0569 9.28229 30.5829C9.33939 30.6628 9.33939 30.6628 9.39764 30.7444C9.83085 31.2396 10.4343 31.473 11.0753 31.5321C11.231 31.5388 11.3865 31.539 11.5424 31.5384C11.5876 31.5385 11.6327 31.5385 11.6792 31.5386C11.8295 31.5386 11.9798 31.5384 12.13 31.5381C12.2382 31.5381 12.3463 31.5381 12.4544 31.5381C12.7473 31.5381 13.0401 31.5378 13.3329 31.5374C13.6392 31.5371 13.9455 31.5371 14.2518 31.537C14.8315 31.5368 15.4112 31.5364 15.9909 31.5359C16.651 31.5353 17.3111 31.535 17.9712 31.5347C19.3288 31.5342 20.6864 31.5333 22.044 31.5321C22.0149 31.4816 21.9858 31.4311 21.9557 31.379C21.9172 31.312 21.8787 31.245 21.8402 31.178C21.8211 31.1448 21.8019 31.1116 21.7822 31.0774C21.6463 30.8406 21.5248 30.603 21.4244 30.3489C21.4094 30.3115 21.3944 30.2741 21.379 30.2356C20.7636 28.6576 20.7962 26.918 21.4684 25.3618C21.7163 24.8218 22.0211 24.3328 22.4131 23.8856C22.4463 23.8443 22.4794 23.8031 22.5135 23.7606C22.8508 23.3559 23.2633 23.0551 23.6855 22.7452C23.7893 22.669 23.8923 22.5919 23.9952 22.5145C22.7362 21.7708 21.4511 21.2952 19.9755 21.2931C19.9293 21.2929 19.8832 21.2926 19.8357 21.2923C19.6844 21.2916 19.5331 21.2912 19.3817 21.2909C19.3033 21.2907 19.3033 21.2907 19.2233 21.2904C18.9461 21.2897 18.6689 21.2892 18.3917 21.2889C18.1086 21.2887 17.8255 21.2874 17.5424 21.2859C17.3219 21.2849 17.1015 21.2846 16.881 21.2845C16.7769 21.2844 16.6727 21.284 16.5685 21.2833C14.2315 21.2686 12.1348 22.0163 10.5479 23.7801ZM22.9899 24.3701C22.2322 25.2518 21.7046 26.4565 21.6749 27.6297C21.6728 27.669 21.6708 27.7082 21.6687 27.7486C21.6238 29.2613 22.2259 30.6286 23.2427 31.7251C24.2348 32.7479 25.6219 33.3461 27.0461 33.3784C28.3421 33.3716 29.5974 32.9569 30.587 32.1122C30.6361 32.0716 30.6851 32.031 30.7357 31.9892C31.7234 31.1377 32.3669 29.9241 32.5381 28.6317C32.6208 27.467 32.4843 26.4557 31.9581 25.4149C31.9299 25.3591 31.9016 25.3033 31.8726 25.2458C31.187 23.9913 29.9965 23.0804 28.6358 22.6727C28.2189 22.5631 27.8008 22.4855 27.3702 22.4618C27.3345 22.4596 27.2988 22.4574 27.262 22.4552C25.5982 22.405 24.1085 23.1763 22.9899 24.3701Z" stroke="#36454F" stroke-width="0.4" mask="url(#path-2-outside-1_4339_6151)"/>
<path d="M19.671 8.22349C19.7357 8.24143 19.8004 8.25938 19.8671 8.27787C20.9108 8.59702 21.7894 9.15738 22.5713 9.91099C22.6125 9.94824 22.6537 9.98549 22.6962 10.0239C23.7389 10.9961 24.3883 12.5259 24.4815 13.9375C24.5197 15.0935 24.4059 16.1261 23.9424 17.1883C23.916 17.2499 23.8896 17.3115 23.8623 17.375C23.1985 18.806 21.9829 19.8626 20.5674 20.5106C20.632 20.519 20.6965 20.5273 20.7629 20.5359C22.0601 20.712 23.2101 21.0749 24.3307 21.7606C24.3635 21.7806 24.3963 21.8006 24.4301 21.8212C24.5225 21.8817 24.5225 21.8817 24.6807 22.0098C24.8388 22.1129 24.8388 22.1129 25.034 22.0593C25.1046 22.0343 25.1747 22.008 25.2443 21.9806C25.3199 21.9541 25.3956 21.9279 25.4713 21.9019C25.5078 21.889 25.5443 21.8762 25.5819 21.863C26.8874 21.422 28.5551 21.6692 29.7748 22.2468C29.943 22.331 30.1074 22.4209 30.2706 22.5145C30.3241 22.545 30.3777 22.5754 30.4329 22.6068C30.8903 22.8827 31.2703 23.2406 31.6417 23.6219C31.6678 23.645 31.6939 23.6681 31.7208 23.692C32.6811 24.5723 33.2437 26.0287 33.3452 27.3032C33.3521 27.5046 33.3538 27.7051 33.3522 27.9066C33.352 27.9597 33.352 27.9597 33.3517 28.0138C33.3405 29.7005 32.6716 31.1867 31.4966 32.3857C30.2142 33.6495 28.6118 34.1445 26.8415 34.1317C25.4242 34.113 24.0153 33.5661 22.9889 32.5769C22.7576 32.3583 22.5733 32.3607 22.2707 32.3619C22.2232 32.3616 22.1758 32.3614 22.1269 32.3612C21.9672 32.3605 21.8075 32.3606 21.6478 32.3607C21.5336 32.3604 21.4193 32.36 21.3051 32.3596C21.0586 32.3588 20.8121 32.3584 20.5657 32.3581C20.1756 32.3578 19.7855 32.3566 19.3955 32.3554C18.5666 32.3528 17.7378 32.3511 16.909 32.3495C16.0161 32.3477 15.1231 32.3458 14.2302 32.3429C13.8428 32.3417 13.4555 32.341 13.0682 32.3406C12.8264 32.3403 12.5846 32.3396 12.3428 32.3387C12.2312 32.3384 12.1196 32.3383 12.0079 32.3383C10.7758 32.3388 9.7867 32.211 8.84723 31.331C8.29002 30.7464 8.01035 30.0432 8.00595 29.2423C8.00565 29.1991 8.00535 29.156 8.00504 29.1115C8.00454 29.02 8.0042 28.9285 8.00399 28.837C8.00349 28.7002 8.00185 28.5635 8.00018 28.4267C7.99528 27.6631 8.08924 26.9409 8.31659 26.2092C8.33003 26.1655 8.34347 26.1219 8.35732 26.0769C8.68621 25.0447 9.19647 24.1179 9.9151 23.3055C9.93832 23.2786 9.96154 23.2516 9.98547 23.2238C10.3777 22.7693 10.7994 22.3906 11.2862 22.0399C11.3177 22.017 11.3491 21.9941 11.3816 21.9705C12.5838 21.1044 13.9829 20.6442 15.4522 20.5106C15.3999 20.4863 15.3475 20.4619 15.2936 20.4368C13.7191 19.6881 12.4817 18.4334 11.8874 16.7751C11.6785 16.1588 11.531 15.5194 11.4971 14.868C11.4943 14.82 11.4916 14.7719 11.4887 14.7224C11.4347 12.8901 12.1598 11.2353 13.3956 9.91099C14.9898 8.31672 17.4809 7.60062 19.671 8.22349ZM13.7534 10.7131C12.7767 11.7537 12.2424 13.2424 12.2785 14.6633C12.3419 15.66 12.5916 16.5266 13.0792 17.3993C13.1078 17.4513 13.1365 17.5033 13.1661 17.5569C13.4149 17.9762 13.7402 18.3199 14.0811 18.6649C14.137 18.7227 14.137 18.7227 14.194 18.7817C15.1759 19.7269 16.6256 20.2437 17.9774 20.2492C18.8982 20.2303 19.7446 20.0345 20.5674 19.6141C20.618 19.5891 20.6685 19.5641 20.7205 19.5383C21.0742 19.3557 21.3734 19.1347 21.6749 18.8758C21.7391 18.8231 21.7391 18.8231 21.8046 18.7693C22.85 17.8806 23.4977 16.5899 23.6788 15.2372C23.787 13.7148 23.4825 12.1715 22.4681 10.9826C22.4326 10.9422 22.397 10.9018 22.3604 10.8602C22.3254 10.8177 22.2904 10.7751 22.2543 10.7313C21.2736 9.57474 19.8496 8.9401 18.3559 8.81016C16.5448 8.73836 15.0206 9.44809 13.7534 10.7131ZM10.5479 23.7801C9.83336 24.6215 9.35306 25.5547 9.0318 26.608C9.01606 26.6589 9.01606 26.6589 9.00001 26.7109C8.8253 27.3135 8.788 27.9203 8.78813 28.5436C8.7879 28.6649 8.78597 28.7861 8.78399 28.9073C8.77911 29.5488 8.90525 30.0569 9.28229 30.5829C9.33939 30.6628 9.33939 30.6628 9.39764 30.7444C9.83085 31.2396 10.4343 31.473 11.0753 31.5321C11.231 31.5388 11.3865 31.539 11.5424 31.5384C11.5876 31.5385 11.6327 31.5385 11.6792 31.5386C11.8295 31.5386 11.9798 31.5384 12.13 31.5381C12.2382 31.5381 12.3463 31.5381 12.4544 31.5381C12.7473 31.5381 13.0401 31.5378 13.3329 31.5374C13.6093 31.5371 13.8857 31.5371 14.162 31.537C14.192 31.537 14.2219 31.537 14.2518 31.537C14.8315 31.5368 15.4112 31.5364 15.9909 31.5359C16.651 31.5353 17.3111 31.535 17.9712 31.5347C19.3288 31.5342 20.6864 31.5333 22.044 31.5321C22.0149 31.4816 21.9858 31.4311 21.9557 31.379C21.9172 31.312 21.8787 31.245 21.8402 31.178C21.8211 31.1448 21.8019 31.1116 21.7822 31.0774C21.6463 30.8406 21.5248 30.603 21.4244 30.3489C21.4094 30.3115 21.3944 30.2741 21.379 30.2356C20.7636 28.6576 20.7962 26.918 21.4684 25.3618C21.7163 24.8218 22.0211 24.3328 22.4131 23.8856C22.4463 23.8443 22.4794 23.8031 22.5135 23.7606C22.8467 23.3608 23.2533 23.0624 23.6702 22.7565C23.6753 22.7527 23.6804 22.749 23.6855 22.7452C23.7893 22.669 23.8923 22.5919 23.9952 22.5145C22.7362 21.7708 21.4511 21.2952 19.9755 21.2931C19.9293 21.2929 19.8832 21.2926 19.8357 21.2923C19.6844 21.2916 19.5331 21.2912 19.3817 21.2909C19.3033 21.2907 19.3033 21.2907 19.2233 21.2904C18.9461 21.2897 18.6689 21.2892 18.3917 21.2889C18.1086 21.2887 17.8255 21.2874 17.5424 21.2859C17.3219 21.2849 17.1015 21.2846 16.881 21.2845C16.7769 21.2844 16.6727 21.284 16.5685 21.2833C14.2315 21.2686 12.1348 22.0163 10.5479 23.7801ZM22.9899 24.3701C22.2322 25.2518 21.7046 26.4565 21.6749 27.6297C21.6728 27.669 21.6708 27.7082 21.6687 27.7486C21.6238 29.2613 22.2259 30.6286 23.2427 31.7251C24.2348 32.7479 25.6219 33.3461 27.0461 33.3784C28.3421 33.3716 29.5974 32.9569 30.587 32.1122C30.6361 32.0716 30.6851 32.031 30.7357 31.9892C31.7234 31.1377 32.3669 29.9241 32.5381 28.6317C32.6208 27.467 32.4843 26.4557 31.9581 25.4149C31.9299 25.3591 31.9016 25.3033 31.8726 25.2458C31.187 23.9913 29.9965 23.0804 28.6358 22.6727C28.2189 22.5631 27.8008 22.4855 27.3702 22.4618C27.3345 22.4596 27.2988 22.4574 27.262 22.4552C25.5982 22.405 24.1085 23.1763 22.9899 24.3701Z" fill="#36454F" fill-opacity="0.2"/>
<path fill-rule="evenodd" clip-rule="evenodd" d="M9.0318 26.608C9.35306 25.5547 9.83336 24.6215 10.5479 23.7801C12.1348 22.0163 14.2315 21.2686 16.5685 21.2833C16.6727 21.284 16.7769 21.2844 16.881 21.2845C17.1015 21.2846 17.3219 21.2849 17.5424 21.2859C17.8255 21.2874 18.1086 21.2887 18.3917 21.2889C18.6689 21.2892 18.9461 21.2897 19.2233 21.2904L19.3817 21.2909C19.5331 21.2912 19.6844 21.2916 19.8357 21.2923L19.9755 21.2931C21.4511 21.2952 22.7362 21.7708 23.9952 22.5145C23.8923 22.5919 23.7893 22.669 23.6855 22.7452L23.6702 22.7565C23.2533 23.0624 22.8467 23.3608 22.5135 23.7606L22.4131 23.8856C22.0211 24.3328 21.7163 24.8218 21.4684 25.3618C20.7962 26.918 20.7636 28.6576 21.379 30.2356L21.4244 30.3489C21.5248 30.603 21.6463 30.8406 21.7822 31.0774L21.8402 31.178L21.9557 31.379L22.044 31.5321C20.6864 31.5333 19.3288 31.5342 17.9712 31.5347C17.3111 31.535 16.651 31.5353 15.9909 31.5359C15.4112 31.5364 14.8315 31.5368 14.2518 31.537L14.162 31.537C13.8857 31.5371 13.6093 31.5371 13.3329 31.5374C13.0401 31.5378 12.7473 31.5381 12.4544 31.5381L12.13 31.5381C11.9798 31.5384 11.8295 31.5386 11.6792 31.5386L11.5424 31.5384C11.3865 31.539 11.231 31.5388 11.0753 31.5321C10.4343 31.473 9.83085 31.2396 9.39764 30.7444L9.28229 30.5829C8.90525 30.0569 8.77911 29.5488 8.78399 28.9073C8.78597 28.7861 8.7879 28.6649 8.78813 28.5436C8.788 27.9203 8.8253 27.3135 9.00001 26.7109L9.0318 26.608Z" fill="#36454F" fill-opacity="0.2"/>
<path fill-rule="evenodd" clip-rule="evenodd" d="M12.2785 14.6633C12.2424 13.2424 12.7767 11.7537 13.7534 10.7131C15.0206 9.44809 16.5448 8.73836 18.3559 8.81016C19.8496 8.9401 21.2736 9.57474 22.2543 10.7313L22.3604 10.8602L22.4681 10.9826C23.4825 12.1715 23.787 13.7148 23.6788 15.2372C23.4977 16.5899 22.85 17.8806 21.8046 18.7693L21.6749 18.8758C21.3734 19.1347 21.0742 19.3557 20.7205 19.5383L20.5674 19.6141C19.7446 20.0345 18.8982 20.2303 17.9774 20.2492C16.6256 20.2437 15.1759 19.7269 14.194 18.7817L14.0811 18.6649C13.7402 18.3199 13.4149 17.9762 13.1661 17.5569L13.0792 17.3993C12.5916 16.5266 12.3419 15.66 12.2785 14.6633Z" fill="#36454F" fill-opacity="0.2"/>
<path fill-rule="evenodd" clip-rule="evenodd" d="M21.6749 27.6297C21.7046 26.4565 22.2322 25.2518 22.9899 24.3701C24.1085 23.1763 25.5982 22.405 27.262 22.4552L27.3702 22.4618C27.8008 22.4855 28.2189 22.5631 28.6358 22.6727C29.9965 23.0804 31.187 23.9913 31.8726 25.2458L31.9581 25.4149C32.4843 26.4557 32.6208 27.467 32.5381 28.6317C32.3669 29.9241 31.7234 31.1377 30.7357 31.9892L30.587 32.1122C29.5974 32.9569 28.3421 33.3716 27.0461 33.3784C25.6219 33.3461 24.2348 32.7479 23.2427 31.7251C22.2259 30.6286 21.6238 29.2613 21.6687 27.7486L21.6749 27.6297Z" fill="#36454F" fill-opacity="0.2"/>
<path d="M27.8001 28C27.8001 27.5581 27.4419 27.1999 27 27.1999C26.5581 27.1999 26.1999 27.5581 26.1999 28C26.1999 28.4419 26.5581 28.8001 27 28.8001C27.4419 28.8001 27.8001 28.4419 27.8001 28ZM28 28C28 28.5523 27.5523 29 27 29C26.4477 29 26 28.5523 26 28C26 27.4477 26.4477 27 27 27C27.5523 27 28 27.4477 28 28Z" fill="#36454F" stroke="#36454F" stroke-width="0.3" stroke-miterlimit="10" stroke-linecap="round" stroke-linejoin="round"/>
<path d="M29.8066 27.7298C29.8066 27.4643 29.6007 27.2488 29.352 27.2488C29.0688 27.2488 28.8438 27.1421 28.7343 26.9409C28.6247 26.7397 28.6501 26.4802 28.7924 26.2204C28.9166 25.9929 28.8423 25.6967 28.625 25.5653C28.625 25.5654 28.6249 25.5653 28.625 25.5653L28.1229 25.2614C28.1224 25.2611 28.1219 25.2608 28.1215 25.2605C27.9401 25.1464 27.7029 25.2131 27.5926 25.4087L27.561 25.4664C27.4187 25.7262 27.2184 25.8789 26.9989 25.8789C26.7793 25.8789 26.5797 25.726 26.4388 25.466L26.4074 25.4088C26.2971 25.2131 26.0599 25.1464 25.8785 25.2605C25.8781 25.2608 25.8776 25.2611 25.8771 25.2614L25.3751 25.5653C25.3751 25.5653 25.3751 25.5653 25.3751 25.5653C25.1578 25.6967 25.0834 25.9929 25.2076 26.2204C25.3499 26.4802 25.3753 26.7397 25.2657 26.9409C25.1562 27.1421 24.9312 27.2488 24.648 27.2488C24.3971 27.2488 24.1934 27.4667 24.1934 27.7298V28.2701C24.1934 28.5333 24.3971 28.7512 24.648 28.7512C24.9312 28.7512 25.1562 28.8579 25.2657 29.0591C25.3753 29.2603 25.3499 29.5198 25.2076 29.7796C25.0834 30.0071 25.1577 30.3033 25.375 30.4347C25.375 30.4346 25.3751 30.4347 25.375 30.4347L25.8771 30.7386L25.8785 30.7395C26.0599 30.8536 26.2971 30.7869 26.4074 30.5912L26.439 30.5336C26.5813 30.2738 26.7816 30.1211 27.0011 30.1211C27.2206 30.1211 27.4201 30.2738 27.561 30.5336L27.5926 30.5912C27.7029 30.7869 27.9401 30.8536 28.1215 30.7395C28.1219 30.7392 28.1224 30.7389 28.1229 30.7386L28.625 30.4347C28.8422 30.3033 28.9168 30.0099 28.7921 29.7791C28.65 29.5194 28.6247 29.2601 28.7343 29.0591C28.8438 28.8579 29.0688 28.7512 29.352 28.7512C29.6029 28.7512 29.8066 28.5333 29.8066 28.2701V27.7298ZM30 28.2701C30 28.6455 29.7104 28.9557 29.352 28.9557C29.1099 28.9557 28.9649 29.0454 28.9018 29.1612C28.8392 29.2761 28.838 29.4521 28.9569 29.6719L28.9597 29.6771C29.1368 30.0049 29.0318 30.4242 28.7209 30.6122L28.2193 30.9159C27.9424 31.0893 27.5886 30.9842 27.4262 30.6955C27.426 30.6951 27.4258 30.6948 27.4256 30.6944L27.3937 30.6361C27.3938 30.6362 27.3936 30.636 27.3937 30.6361C27.2734 30.4141 27.1275 30.3256 27.0011 30.3256C26.8745 30.3256 26.728 30.4139 26.6063 30.6361L26.5744 30.6944C26.5742 30.6948 26.574 30.6951 26.5738 30.6955C26.4114 30.9842 26.0575 31.0893 25.7807 30.9159L25.2791 30.6122C24.9683 30.4243 24.8627 30.0023 25.0402 29.6772C25.1619 29.455 25.1613 29.277 25.0982 29.1612C25.0351 29.0454 24.8901 28.9557 24.648 28.9557C24.2896 28.9557 24 28.6455 24 28.2701V27.7298C24 27.3544 24.2896 27.0443 24.648 27.0443C24.8901 27.0443 25.0351 26.9546 25.0982 26.8388C25.1613 26.723 25.162 26.5451 25.0403 26.3229C25.0403 26.323 25.0403 26.3229 25.0403 26.3229C24.8627 25.9978 24.9683 25.5756 25.2791 25.3878L25.781 25.0839C26.0556 24.9121 26.406 25.0143 26.57 25.2978L26.5738 25.3045L26.5744 25.3056L26.6063 25.3639C26.7266 25.5859 26.8725 25.6744 26.9989 25.6744C27.1255 25.6744 27.272 25.5861 27.3937 25.3639L27.4256 25.3056L27.4262 25.3045C27.5885 25.0159 27.9421 24.9108 28.2189 25.0839L28.7209 25.3878L28.7281 25.3922C29.0333 25.5822 29.1359 26.0002 28.9598 26.3228C28.9598 26.3228 28.9597 26.3229 28.9598 26.3228C28.8381 26.545 28.8387 26.723 28.9018 26.8388C28.9649 26.9546 29.1099 27.0443 29.352 27.0443C29.7068 27.0443 30 27.3507 30 27.7298V28.2701Z" fill="#36454F"/>
<path d="M28.625 25.5653C28.8423 25.6967 28.9166 25.9929 28.7924 26.2204C28.6501 26.4802 28.6247 26.7397 28.7343 26.9409C28.8438 27.1421 29.0688 27.2488 29.352 27.2488C29.6007 27.2488 29.8066 27.4643 29.8066 27.7298V28.2701C29.8066 28.5333 29.6029 28.7512 29.352 28.7512C29.0688 28.7512 28.8438 28.8579 28.7343 29.0591C28.6247 29.2601 28.65 29.5194 28.7921 29.7791C28.9168 30.0099 28.8422 30.3033 28.625 30.4347L28.1229 30.7386C28.1224 30.7389 28.1219 30.7392 28.1215 30.7395C27.9401 30.8536 27.7029 30.7869 27.5926 30.5912L27.561 30.5336C27.4201 30.2738 27.2206 30.1211 27.0011 30.1211C26.7816 30.1211 26.5813 30.2738 26.439 30.5336L26.4074 30.5912C26.2971 30.7869 26.0599 30.8536 25.8785 30.7395L25.8771 30.7386L25.375 30.4347M28.625 25.5653C28.6249 25.5653 28.625 25.5654 28.625 25.5653ZM28.625 25.5653L28.1229 25.2614C28.1224 25.2611 28.1219 25.2608 28.1215 25.2605C27.9401 25.1464 27.7029 25.2131 27.5926 25.4087L27.561 25.4664C27.4187 25.7262 27.2184 25.8789 26.9989 25.8789C26.7793 25.8789 26.5797 25.726 26.4388 25.466L26.4074 25.4088C26.2971 25.2131 26.0599 25.1464 25.8785 25.2605C25.8781 25.2608 25.8776 25.2611 25.8771 25.2614L25.3751 25.5653M25.3751 25.5653C25.3751 25.5653 25.3751 25.5653 25.3751 25.5653ZM25.3751 25.5653C25.1578 25.6967 25.0834 25.9929 25.2076 26.2204C25.3499 26.4802 25.3753 26.7397 25.2657 26.9409C25.1562 27.1421 24.9312 27.2488 24.648 27.2488C24.3971 27.2488 24.1934 27.4667 24.1934 27.7298V28.2701C24.1934 28.5333 24.3971 28.7512 24.648 28.7512C24.9312 28.7512 25.1562 28.8579 25.2657 29.0591C25.3753 29.2603 25.3499 29.5198 25.2076 29.7796C25.0834 30.0071 25.1577 30.3033 25.375 30.4347M25.375 30.4347C25.3751 30.4347 25.375 30.4346 25.375 30.4347ZM27.3937 30.6361L27.4256 30.6944C27.4258 30.6948 27.426 30.6951 27.4262 30.6955C27.5886 30.9842 27.9424 31.0893 28.2193 30.9159L28.7209 30.6122C29.0318 30.4242 29.1368 30.0049 28.9597 29.6771L28.9569 29.6719C28.838 29.4521 28.8392 29.2761 28.9018 29.1612C28.9649 29.0454 29.1099 28.9557 29.352 28.9557C29.7104 28.9557 30 28.6455 30 28.2701V27.7298C30 27.3507 29.7068 27.0443 29.352 27.0443C29.1099 27.0443 28.9649 26.9546 28.9018 26.8388C28.8387 26.723 28.8381 26.545 28.9598 26.3228M27.3937 30.6361C27.3936 30.636 27.3938 30.6362 27.3937 30.6361ZM27.3937 30.6361C27.2734 30.4141 27.1275 30.3256 27.0011 30.3256C26.8745 30.3256 26.728 30.4139 26.6063 30.6361L26.5744 30.6944C26.5742 30.6948 26.574 30.6951 26.5738 30.6955C26.4114 30.9842 26.0575 31.0893 25.7807 30.9159L25.2791 30.6122C24.9683 30.4243 24.8627 30.0023 25.0402 29.6772C25.1619 29.455 25.1613 29.277 25.0982 29.1612C25.0351 29.0454 24.8901 28.9557 24.648 28.9557C24.2896 28.9557 24 28.6455 24 28.2701V27.7298C24 27.3544 24.2896 27.0443 24.648 27.0443C24.8901 27.0443 25.0351 26.9546 25.0982 26.8388C25.1613 26.723 25.162 26.5451 25.0403 26.3229M25.0403 26.3229C25.0403 26.3229 25.0403 26.323 25.0403 26.3229ZM25.0403 26.3229C24.8627 25.9978 24.9683 25.5756 25.2791 25.3878L25.781 25.0839C26.0556 24.9121 26.406 25.0143 26.57 25.2978L26.5738 25.3045L26.5744 25.3056L26.6063 25.3639C26.7266 25.5859 26.8725 25.6744 26.9989 25.6744C27.1255 25.6744 27.272 25.5861 27.3937 25.3639L27.4256 25.3056L27.4262 25.3045C27.5885 25.0159 27.9421 24.9108 28.2189 25.0839L28.7209 25.3878L28.7281 25.3922C29.0333 25.5822 29.1359 26.0002 28.9598 26.3228M28.9598 26.3228C28.9597 26.3229 28.9598 26.3228 28.9598 26.3228Z" stroke="#36454F" stroke-width="0.4" stroke-miterlimit="10" stroke-linecap="round" stroke-linejoin="round"/>
</svg>
